<?xml version="1.0" encoding="iso-8859-1"?>
<!-- Generator: Adobe Illustrator 19.0.0, SVG Export Plug-In . SVG Version: 6.00 Build 0)  -->
<svg version="1.1" id="Layer_1" xmlns="http://www.w3.org/2000/svg" x="0px" y="0px"
     viewBox="0 0 512.001 512.001" style="enable-background:new 0 0 512.001 512.001;" xml:space="preserve">
<path style="fill:#A2A7AB;" d="M237.731,447.275C220.826,337.025,95.29,323.461,36.905,336.938
	c-7.862,1.814-15.877-2.383-18.858-9.884C-17.867,236.7-0.418,129.005,72.533,54.055c8.455-8.687,23.148-5.445,27.139,6.027
	c13.969,40.152,43.442,73.61,80.932,92.923V65.451c0-9.023,7.315-16.338,16.338-16.338s16.338,7.315,16.338,16.338
	c0,23.556,19.164,42.72,42.72,42.72s42.721-19.165,42.721-42.72c0-9.023,7.315-16.338,16.338-16.338
	c9.023,0,16.338,7.315,16.338,16.338v87.554c37.49-19.312,66.962-52.77,80.932-92.923c3.997-11.492,18.701-14.695,27.139-6.027
	c72.933,74.932,90.408,182.623,54.486,272.999c-2.981,7.501-10.992,11.698-18.858,9.884
	c-58.343-13.468-183.917,0.054-200.826,110.337C271.079,468.103,240.92,468.084,237.731,447.275z"/>
    <g>
	<path style="fill:#7D868C;" d="M439.467,54.055c-8.438-8.668-23.142-5.466-27.139,6.027c-13.969,40.152-43.442,73.61-80.932,92.923
		V65.451c0-9.023-7.315-16.338-16.338-16.338c-9.023,0-16.338,7.315-16.338,16.338c0,23.556-19.164,42.72-42.721,42.72l0,0v354.717
		c8.337,0.002,16.674-5.2,18.27-15.613c16.909-110.283,142.483-123.806,200.826-110.337c7.866,1.815,15.877-2.383,18.858-9.884
		C529.875,236.678,512.402,128.988,439.467,54.055z"/>
        <path style="fill:#7D868C;" d="M101.516,65.081c-0.638-1.656-1.259-3.319-1.844-4.997c-3.996-11.489-18.7-14.698-27.139-6.027
		c-1.369,1.407-2.717,2.829-4.05,4.262c3.371,94.688,24.55,194.956,67.462,282.03c17.362,4.652,34.018,11.629,48.92,21.68
		C132.008,273.303,106.236,166.937,101.516,65.081z"/>
</g>
    <path style="fill:#747C81;" d="M410.485,65.081c0.638-1.656,1.259-3.319,1.844-4.997c3.996-11.489,18.7-14.698,27.139-6.027
	c1.369,1.407,2.717,2.829,4.05,4.262c-3.371,94.688-24.55,194.956-67.462,282.03c-17.362,4.652-34.018,11.629-48.92,21.68
	C379.992,273.303,405.765,166.937,410.485,65.081z"/>
    <circle style="fill:#535A5C;" cx="220.775" cy="140.848" r="21.613"/>
    <circle style="fill:#4A5052;" cx="289.81" cy="140.848" r="21.613"/>
    <g>
</g>
    <g>
</g>
    <g>
</g>
    <g>
</g>
    <g>
</g>
    <g>
</g>
    <g>
</g>
    <g>
</g>
    <g>
</g>
    <g>
</g>
    <g>
</g>
    <g>
</g>
    <g>
</g>
    <g>
</g>
    <g>
</g>
</svg>
