<?xml version="1.0" encoding="iso-8859-1"?>
<!-- Generator: Adobe Illustrator 19.0.0, SVG Export Plug-In . SVG Version: 6.00 Build 0)  -->
<svg version="1.1" id="Layer_1" xmlns="http://www.w3.org/2000/svg" x="0px" y="0px"
     viewBox="0 0 512 512" style="enable-background:new 0 0 512 512;" xml:space="preserve">
<path style="fill:#514335;" d="M386.933,159.647c-7.534-25.142-14.763-60.292-53.657-89.127c-8.378-6.212-9.261-18.423-1.904-25.781
	l22.996-22.994c28.992-28.992,76.167-28.992,105.159,0c29.062,29.062,29.064,76.096,0,105.16
	c-30.294,30.293-34.655,36.201-48.67,43.138C401.404,174.726,389.971,169.783,386.933,159.647z"/>
    <path style="fill:#64503C;" d="M101.143,170.043c-14.001-6.931-18.227-12.695-48.67-43.139c-29.062-29.06-29.064-76.095,0-105.16
	c28.992-28.992,76.167-28.992,105.159,0l22.995,22.994c7.373,7.373,6.457,19.582-1.904,25.781
	c-38.519,28.556-45.839,63.034-53.657,89.127C122.021,169.809,110.566,174.711,101.143,170.043z"/>
    <path style="fill:#7F5334;" d="M210.227,497.397L73.353,400.047c-27.59-19.623-39.598-54.596-29.881-87.026L99,127.71
	C119.69,58.666,183.11,10.857,256,10.857c72.057,0,136.072,47.011,157.001,116.853l55.528,185.31
	c9.718,32.431-2.291,67.405-29.881,87.027l-136.874,97.348C274.397,516.866,237.606,516.868,210.227,497.397z"/>
    <path style="fill:#64503C;" d="M468.527,313.02L413,127.71C392.072,57.869,328.057,10.857,256,10.857v501.142
	c16.043,0,32.085-4.868,45.774-14.604l136.874-97.348C466.238,380.424,478.245,345.452,468.527,313.02z"/>
    <path style="fill:#975F39;" d="M210.227,497.396l-97.378-69.257C81.591,405.913,142.999,205.086,256,205.086
	c112.877,0,174.477,200.773,143.151,223.053l-97.379,69.257C274.401,516.865,237.612,516.873,210.227,497.396z"/>
    <g>
	<path style="fill:#7F5334;" d="M256,205.086V512c16.043,0,32.085-4.869,45.773-14.605l97.379-69.257
		C430.478,405.858,368.877,205.086,256,205.086z"/>
        <path style="fill:#7F5334;" d="M283.846,274.91h-55.691c-14.571,0-22.472,17.192-12.902,28.242l23.681,27.343v23.85
		c0,9.426,7.642,17.068,17.068,17.068c9.426,0,17.068-7.642,17.068-17.068v-23.85l23.68-27.343
		C306.287,292.137,298.464,274.91,283.846,274.91z"/>
</g>
    <path style="fill:#64503C;" d="M283.846,274.91H256v96.504c9.426,0,17.068-7.642,17.068-17.068v-23.85l23.681-27.343
	C306.287,292.137,298.464,274.91,283.846,274.91z"/>
    <circle style="fill:#4D3D2E;" cx="173.914" cy="166.7" r="22.579"/>
    <circle style="fill:#453729;" cx="338.088" cy="166.7" r="22.579"/>
    <g>
</g>
    <g>
</g>
    <g>
</g>
    <g>
</g>
    <g>
</g>
    <g>
</g>
    <g>
</g>
    <g>
</g>
    <g>
</g>
    <g>
</g>
    <g>
</g>
    <g>
</g>
    <g>
</g>
    <g>
</g>
    <g>
</g>
</svg>
