<?xml version="1.0" encoding="iso-8859-1"?>
<!-- Generator: Adobe Illustrator 19.0.0, SVG Export Plug-In . SVG Version: 6.00 Build 0)  -->
<svg version="1.1" id="Layer_1" xmlns="http://www.w3.org/2000/svg" x="0px" y="0px"
     viewBox="0 0 512 512" style="enable-background:new 0 0 512 512;" xml:space="preserve">
<g>
	<path style="fill:#0E5729;" d="M355.285,236.332c-3.303-8.294,0.741-17.697,9.037-21.001l60.121-23.949V97.391
		c0-8.928,7.238-16.166,16.166-16.166c8.928,0,16.166,7.238,16.166,16.166v104.953c0,6.62-4.034,12.57-10.184,15.018l-70.305,28.005
		C367.995,248.671,358.592,244.629,355.285,236.332z"/>
    <path style="fill:#0E5729;" d="M495.834,306.025H370.305c-8.928,0-16.166-7.238-16.166-16.166c0-8.928,7.238-16.166,16.166-16.166
		h125.529c8.928,0,16.166,7.238,16.166,16.166C512,298.787,504.762,306.025,495.834,306.025z"/>
    <path style="fill:#0E5729;" d="M446.592,362.356l-74.531-29.689c-8.295-3.307-17.697,0.741-21.001,9.036
		c-3.303,8.294,0.741,17.697,9.037,21.001l64.347,25.632v44.794h-18.986c-8.928,0-16.166,7.238-16.166,16.166
		c0,8.928,7.238,16.166,16.166,16.166h18.986v16.866c0,8.928,7.238,16.166,16.166,16.166s16.166-7.238,16.166-16.166V377.375
		C456.776,370.755,452.742,364.805,446.592,362.356z"/>
</g>
    <g>
	<path style="fill:#126B33;" d="M135.713,245.369l-70.305-28.005c-6.15-2.449-10.184-8.399-10.184-15.018V97.391
		c0-8.928,7.238-16.166,16.166-16.166s16.166,7.238,16.166,16.166v93.991l60.121,23.949c8.294,3.304,12.34,12.707,9.037,21.001
		C153.409,244.627,144.006,248.672,135.713,245.369z"/>
        <path style="fill:#126B33;" d="M141.695,306.025H16.166C7.238,306.025,0,298.787,0,289.859c0-8.928,7.238-16.166,16.166-16.166
		h125.529c8.928,0,16.166,7.238,16.166,16.166C157.862,298.787,150.623,306.025,141.695,306.025z"/>
        <path style="fill:#126B33;" d="M160.94,341.703c-3.304-8.294-12.706-12.34-21.001-9.036l-74.531,29.689
		c-6.15,2.449-10.184,8.399-10.184,15.018v104.953c0,8.928,7.238,16.166,16.166,16.166s16.166-7.238,16.166-16.166v-16.866h18.986
		c8.928,0,16.166-7.238,16.166-16.166s-7.238-16.166-16.166-16.166H87.555v-44.794l64.347-25.632
		C160.198,359.4,164.244,349.998,160.94,341.703z"/>
        <path style="fill:#126B33;" d="M345.89,204.362H166.11c-8.928,0-16.166-7.238-16.166-16.166V62.004
		c0-26.742,21.757-48.499,48.499-48.499h25.441c8.928,0,16.166,7.238,16.166,16.166v47.146c0,8.794,7.155,15.949,15.95,15.949
		c8.794,0,15.95-7.155,15.95-15.949V29.672c0-8.928,7.238-16.166,16.166-16.166h25.441c26.742,0,48.499,21.757,48.499,48.499
		v126.191C362.057,197.124,354.819,204.362,345.89,204.362z"/>
</g>
    <path style="fill:#0E5729;" d="M313.558,13.505h-25.443c-8.928,0-16.166,7.238-16.166,16.166v47.146
	c0,8.794-7.155,15.949-15.95,15.949v111.595h89.89c8.928,0,16.166-7.238,16.166-16.166V62.004
	C362.057,35.262,340.3,13.505,313.558,13.505z"/>
    <path style="fill:#128C3B;" d="M255.999,447.263c-71.942,0-130.472-58.529-130.472-130.472V188.196
	c0-8.928,7.238-16.166,16.166-16.166h228.611c8.928,0,16.166,7.238,16.166,16.166v128.595
	C386.471,388.733,327.942,447.263,255.999,447.263z"/>
    <g>
	<path style="fill:#126B33;" d="M370.305,172.03H255.999v275.233c71.942,0,130.472-58.529,130.472-130.472V188.196
		C386.471,179.267,379.233,172.03,370.305,172.03z"/>
        <path style="fill:#126B33;" d="M239.833,446.261c10.751,1.334,21.578,1.335,32.333,0V172.03h-32.333V446.261z"/>
</g>
    <path style="fill:#0E5729;" d="M272.166,172.03h-16.166v275.233c5.394,0,10.789-0.334,16.166-1.001V172.03z"/>
    <g>
</g>
    <g>
</g>
    <g>
</g>
    <g>
</g>
    <g>
</g>
    <g>
</g>
    <g>
</g>
    <g>
</g>
    <g>
</g>
    <g>
</g>
    <g>
</g>
    <g>
</g>
    <g>
</g>
    <g>
</g>
    <g>
</g>
</svg>
