<?xml version="1.0" encoding="iso-8859-1"?>
<!-- Generator: Adobe Illustrator 19.0.0, SVG Export Plug-In . SVG Version: 6.00 Build 0)  -->
<svg version="1.1" id="Layer_1" xmlns="http://www.w3.org/2000/svg" x="0px" y="0px"
     viewBox="0 0 511.999 511.999" style="enable-background:new 0 0 511.999 511.999;" xml:space="preserve">
<path style="fill:#F3B73F;" d="M495.659,207.894h-80.407c-9.024,0-16.34-7.316-16.34-16.34v-58.212c0-9.024,7.316-16.34,16.34-16.34
	h22.195c41.108,0,74.552,33.444,74.552,74.552C511.999,200.578,504.683,207.894,495.659,207.894z"/>
    <path style="fill:#2C9DD0;" d="M350.12,401.785h-72.03c-9.024,0-16.34-7.316-16.34-16.34c0-9.024,7.316-16.34,16.34-16.34
	c26.907,0,48.796-21.89,48.796-48.797v-54.865c0-31.285-24.929-56.759-56.082-57.53c-8.864-0.219-15.936-7.467-15.936-16.335
	v-56.875c0-48.722,39.638-88.358,88.359-88.358c48.727,0,88.37,39.638,88.37,88.358v185.605
	C431.596,365.235,395.045,401.785,350.12,401.785z"/>
    <g>
	<path style="fill:#277EA4;" d="M431.596,207.725H254.868c0,12.136-2.789,31.92,15.665,32.68h161.063V207.725z"/>
        <path style="fill:#277EA4;" d="M365.938,465.654h-30.856c-4.333,0-8.489-1.721-11.553-4.787l-63.873-63.873
		c-15.268-15.267,7.825-38.391,23.108-23.108l59.088,59.087h24.088c9.024,0,16.34,7.316,16.34,16.34
		C382.279,458.337,374.962,465.654,365.938,465.654z"/>
</g>
    <path style="fill:#58A4B3;" d="M275.222,465.654h-30.856c-4.333,0-8.489-1.721-11.553-4.787l-63.873-63.873
	c-15.268-15.267,7.825-38.391,23.108-23.108l59.088,59.087h24.088c9.024,0,16.34,7.316,16.34,16.34
	C291.563,458.337,284.246,465.654,275.222,465.654z"/>
    <path style="fill:#277EA4;" d="M275.222,432.974h-20.354v32.68h20.354c9.024,0,16.34-7.316,16.34-16.34
	C291.562,440.29,284.246,432.974,275.222,432.974z"/>
    <path style="fill:#FFC843;" d="M278.09,401.785H16.352c-15.099,0-22.133-18.861-10.65-28.732l204.82-176.041
	c16.321-14.046,37.56-22.179,60.838-21.773l0.129,0.002c0.041,0.001,0.082,0.002,0.123,0.003
	c48.862,1.208,87.955,41.141,87.955,90.199v54.865C359.566,365.235,323.016,401.785,278.09,401.785z"/>
    <path style="fill:#F3B73F;" d="M271.611,175.244c-0.041-0.001-0.082-0.002-0.123-0.003l-0.129-0.002
	c-5.632-0.098-11.141,0.314-16.493,1.178v225.368h23.222c44.926,0,81.476-36.55,81.476-81.477v-54.865
	C359.566,216.385,320.473,176.452,271.611,175.244z"/>
    <circle style="fill:#4A5052;" cx="364.828" cy="115.012" r="21.616"/>
    <g>
</g>
    <g>
</g>
    <g>
</g>
    <g>
</g>
    <g>
</g>
    <g>
</g>
    <g>
</g>
    <g>
</g>
    <g>
</g>
    <g>
</g>
    <g>
</g>
    <g>
</g>
    <g>
</g>
    <g>
</g>
    <g>
</g>
</svg>
