<?xml version="1.0" encoding="iso-8859-1"?>
<!-- Generator: Adobe Illustrator 19.0.0, SVG Export Plug-In . SVG Version: 6.00 Build 0)  -->
<svg version="1.1" id="Layer_1" xmlns="http://www.w3.org/2000/svg" x="0px" y="0px"
     viewBox="0 0 512 512" style="enable-background:new 0 0 512 512;" xml:space="preserve">
<path style="fill:#277EA4;" d="M401.147,242.835c-13.852-47.534-42.294-91.654-76.084-118.021
	c-8.145-6.355-8.211-18.663-0.148-25.111c13.994-11.188,46.234-25.769,120.355-31.689c23.766-1.916,43.676,17.926,41.773,41.772
	c-5.378,67.333-16.677,128.199-65.676,143.818C412.81,256.332,403.663,251.474,401.147,242.835z"/>
    <path style="fill:#2C9DD0;" d="M90.634,253.603c-50.473-16.087-60.601-80.276-65.676-143.817
	c-1.901-23.826,17.97-43.671,41.773-41.772c74.122,5.921,106.362,20.5,120.355,31.689c8.069,6.452,7.99,18.761-0.148,25.111
	c-33.79,26.366-62.231,70.486-76.084,118.021C108.327,251.508,99.154,256.321,90.634,253.603z"/>
    <path style="fill:#6CCFE2;" d="M256,445.533c-104.527,0-185.729-44.799-185.729-146.727c0-101.857,81.956-232.337,185.729-232.337
	c103.761,0,185.729,130.474,185.729,232.337C441.729,401.095,360.098,445.533,256,445.533z"/>
    <path style="fill:#58A4B3;" d="M256,66.467v379.065c104.098,0,185.729-44.437,185.729-146.727
	C441.729,196.942,359.761,66.467,256,66.467z"/>
    <g>
	<path style="fill:#2C9DD0;" d="M304.599,311.963c-2.603-5.697-8.29-9.351-14.554-9.351h-68.089c-6.263,0-11.951,3.654-14.554,9.351
		c-2.603,5.697-1.643,12.388,2.459,17.123l30.139,34.801v81.279c5.246,0.239,10.577,0.367,16,0.367c5.423,0,10.754-0.127,16-0.367
		v-81.279l30.139-34.801C306.241,324.351,307.202,317.66,304.599,311.963z"/>
        <path style="fill:#2C9DD0;" d="M137.964,334.302H16c-8.836,0-16-7.164-16-16c0-8.836,7.164-16,16-16h121.964
		c8.836,0,16,7.164,16,16C153.964,327.138,146.8,334.302,137.964,334.302z"/>
        <path style="fill:#2C9DD0;" d="M29.393,421.293c-3.735-8.009-0.272-17.529,7.737-21.264l94.058-43.873
		c8.007-3.737,17.529-0.271,21.264,7.737c3.735,8.009,0.272,17.529-7.737,21.264l-94.059,43.873
		C42.659,432.762,33.132,429.309,29.393,421.293z"/>
        <path style="fill:#2C9DD0;" d="M188.527,85.273v63.542c0,8.836,7.164,16,16,16s16-7.164,16-16V71.581
		C209.711,74.713,199.025,79.281,188.527,85.273z"/>
</g>
    <g>
	<path style="fill:#277EA4;" d="M304.597,311.963c-2.603-5.697-8.29-9.351-14.554-9.351H256v142.922c5.423,0,10.754-0.127,16-0.367
		v-81.279l30.139-34.801C306.24,324.351,307.2,317.66,304.597,311.963z"/>
        <path style="fill:#277EA4;" d="M496,334.302H374.036c-8.836,0-16-7.164-16-16c0-8.836,7.164-16,16-16H496c8.836,0,16,7.164,16,16
		C512,327.138,504.836,334.302,496,334.302z"/>
        <path style="fill:#277EA4;" d="M461.344,429.029l-94.058-43.873c-8.009-3.735-11.472-13.255-7.737-21.264
		c3.735-8.007,13.258-11.471,21.264-7.737l94.058,43.873c8.009,3.736,11.472,13.255,7.737,21.264
		C478.871,429.301,469.35,432.765,461.344,429.029z"/>
        <path style="fill:#277EA4;" d="M307.473,164.816c8.836,0,16-7.164,16-16V85.273c-10.498-5.991-21.183-10.561-32-13.693v77.235
		C291.473,157.652,298.637,164.816,307.473,164.816z"/>
</g>
    <g>
	<circle style="fill:#4D3D2E;" cx="179.051" cy="242.485" r="21.166"/>
        <circle style="fill:#4D3D2E;" cx="332.949" cy="242.485" r="21.166"/>
</g>
    <g>
</g>
    <g>
</g>
    <g>
</g>
    <g>
</g>
    <g>
</g>
    <g>
</g>
    <g>
</g>
    <g>
</g>
    <g>
</g>
    <g>
</g>
    <g>
</g>
    <g>
</g>
    <g>
</g>
    <g>
</g>
    <g>
</g>
</svg>
