<?xml version="1.0" encoding="iso-8859-1"?>
<!-- Generator: Adobe Illustrator 19.0.0, SVG Export Plug-In . SVG Version: 6.00 Build 0)  -->
<svg version="1.1" id="Layer_1" xmlns="http://www.w3.org/2000/svg" x="0px" y="0px"
     viewBox="0 0 512 512" style="enable-background:new 0 0 512 512;" xml:space="preserve">
<path style="fill:#E7A53B;" d="M486.398,223.482l-52.343-30.22c-11.372-6.565-11.353-23.007,0-29.559l52.343-30.22
	c8.162-4.713,18.601-1.916,23.313,6.246c4.713,8.162,1.916,18.6-6.246,23.313l-26.743,15.441l26.743,15.441
	c8.162,4.713,10.959,15.151,6.246,23.313C504.998,225.401,494.557,228.194,486.398,223.482z"/>
    <path style="fill:#FFC843;" d="M229.828,477.305C103.1,477.305,0,374.204,0,247.477c0-9.425,7.641-17.067,17.067-17.067H245.66
	v-88.718c0-58.998,47.999-106.997,106.997-106.997s106.997,47.999,106.997,106.997v105.784
	C459.654,374.204,356.554,477.305,229.828,477.305z"/>
    <g>
	<path style="fill:#F3B73F;" d="M352.657,34.695c-58.998,0-106.997,47.999-106.997,106.997v88.718h-15.832v246.894
		c126.727,0,229.827-103.1,229.827-229.828V141.693C459.654,82.695,411.656,34.695,352.657,34.695z"/>
        <path style="fill:#F3B73F;" d="M229.828,401.181c-51.187,0-98.878-25.437-127.572-68.047c-7.617-11.313,0.502-26.599,14.156-26.599
		h226.831c13.638,0,21.783,15.273,14.156,26.599C328.705,375.743,281.015,401.181,229.828,401.181z"/>
</g>
    <path style="fill:#E7A53B;" d="M343.243,306.535H229.828v94.646c51.187,0,98.877-25.438,127.57-68.047
	C365.026,321.809,356.881,306.535,343.243,306.535z"/>
    <circle style="fill:#514335;" cx="374.669" cy="144.133" r="22.577"/>
    <g>
</g>
    <g>
</g>
    <g>
</g>
    <g>
</g>
    <g>
</g>
    <g>
</g>
    <g>
</g>
    <g>
</g>
    <g>
</g>
    <g>
</g>
    <g>
</g>
    <g>
</g>
    <g>
</g>
    <g>
</g>
    <g>
</g>
</svg>
