<?xml version="1.0" encoding="iso-8859-1"?>
<!-- Generator: Adobe Illustrator 19.0.0, SVG Export Plug-In . SVG Version: 6.00 Build 0)  -->
<svg version="1.1" id="Layer_1" xmlns="http://www.w3.org/2000/svg" x="0px" y="0px"
     viewBox="0 0 512 512" style="enable-background:new 0 0 512 512;" xml:space="preserve">
<g>
	<path style="fill:#77BC1F;" d="M489.552,303.604h-109.78c-9.423,0-17.063-7.64-17.063-17.063s7.64-17.063,17.063-17.063h109.78
		c9.423,0,17.063,7.64,17.063,17.063S498.975,303.604,489.552,303.604z"/>
    <path style="fill:#77BC1F;" d="M350.353,192.188c-6.664-6.664-6.664-17.467,0-24.131l83.188-83.188
		c6.663-6.664,17.467-6.664,24.131,0c6.664,6.664,6.664,17.467,0,24.131l-83.188,83.188
		C367.821,198.852,357.017,198.853,350.353,192.188z"/>
    <path style="fill:#77BC1F;" d="M433.541,488.213l-83.183-83.183c-6.664-6.664-6.664-17.467,0-24.131
		c6.663-6.664,17.467-6.664,24.131,0l83.183,83.183c6.664,6.664,6.664,17.467,0,24.131
		C451.009,494.875,440.204,494.876,433.541,488.213z"/>
</g>
    <g>
	<path style="fill:#7EC60F;" d="M132.229,303.604H22.449c-9.423,0-17.063-7.64-17.063-17.063s7.64-17.063,17.063-17.063h109.78
		c9.423,0,17.063,7.64,17.063,17.063S141.654,303.604,132.229,303.604z"/>
        <path style="fill:#7EC60F;" d="M137.516,192.188L54.328,109c-6.664-6.664-6.664-17.467,0-24.131c6.663-6.664,17.467-6.664,24.131,0
		l83.188,83.188c6.664,6.664,6.664,17.467,0,24.131C154.986,198.852,144.18,198.853,137.516,192.188z"/>
        <path style="fill:#7EC60F;" d="M54.328,488.213c-6.664-6.664-6.664-17.467,0-24.131l83.183-83.183
		c6.663-6.664,17.467-6.664,24.131,0c6.664,6.664,6.664,17.467,0,24.131l-83.183,83.183
		C71.798,494.875,60.992,494.876,54.328,488.213z"/>
</g>
    <path style="fill:#95D600;" d="M153.813,442.543c-24.921-41.94-38.646-97.342-38.646-156.003s13.725-114.062,38.646-156.003
	c26.575-44.724,62.867-69.354,102.188-69.354s75.613,24.63,102.188,69.354c24.921,41.94,38.646,97.342,38.646,156.003
	s-13.725,114.062-38.646,156.003C303.124,535.212,208.807,535.093,153.813,442.543z"/>
    <g>
	<path style="fill:#7EC60F;" d="M358.189,130.538C331.613,85.815,295.322,61.184,256,61.184V512
		c37.328,0.003,74.662-23.133,102.188-69.457c24.921-41.94,38.646-97.342,38.646-156.003S383.11,172.479,358.189,130.538z"/>
        <path style="fill:#7EC60F;" d="M379.114,176.128H132.888c-3.79,10.925-7,22.336-9.602,34.127h115.652v300.056
		c11.369,2.114,22.741,2.117,34.127,0V210.255h115.652C386.114,198.464,382.904,187.053,379.114,176.128z"/>
        <path style="fill:#7EC60F;" d="M244.832,91.146l-65.841-57.02h-72.685c-9.423,0-17.063-7.64-17.063-17.063S96.882,0,106.305,0
		h79.047c4.103,0,8.069,1.479,11.171,4.165l59.479,51.511l59.479-51.511C318.582,1.479,322.549,0,326.652,0h79.047
		c9.423,0,17.063,7.64,17.063,17.063s-7.64,17.063-17.063,17.063h-72.685l-65.84,57.02C260.761,96.699,251.244,96.7,244.832,91.146z
		"/>
</g>
    <g>
	<path style="fill:#77BC1F;" d="M379.114,176.128H256v335.77c5.685,0,11.372-0.528,17.063-1.587V210.255h115.652
		C386.114,198.464,382.904,187.053,379.114,176.128z"/>
        <path style="fill:#77BC1F;" d="M405.698,0h-79.047c-4.103,0-8.069,1.479-11.171,4.165l-59.479,51.511L256,55.674v39.637
		c3.983,0,7.966-1.388,11.172-4.165l65.841-57.02h72.685c9.423,0,17.063-7.64,17.063-17.063S415.122,0,405.698,0z"/>
</g>
    <g>
</g>
    <g>
</g>
    <g>
</g>
    <g>
</g>
    <g>
</g>
    <g>
</g>
    <g>
</g>
    <g>
</g>
    <g>
</g>
    <g>
</g>
    <g>
</g>
    <g>
</g>
    <g>
</g>
    <g>
</g>
    <g>
</g>
</svg>
