<?xml version="1.0" encoding="iso-8859-1"?>
<!-- Generator: Adobe Illustrator 19.0.0, SVG Export Plug-In . SVG Version: 6.00 Build 0)  -->
<svg version="1.1" id="Layer_1" xmlns="http://www.w3.org/2000/svg" x="0px" y="0px"
     viewBox="0 0 512.001 512.001" style="enable-background:new 0 0 512.001 512.001;" xml:space="preserve">
<path style="fill:#128C3B;" d="M255.953,136.5c-9.418,0-17.053-7.635-17.053-17.053V17.053C238.9,7.635,246.535,0,255.953,0
	c9.418,0,17.053,7.635,17.053,17.053v102.395C273.005,128.865,265.371,136.5,255.953,136.5z"/>
    <path style="fill:#126B33;" d="M256,0.002v136.496c9.396-0.026,17.006-7.649,17.006-17.05V17.053
	C273.005,7.651,265.396,0.028,256,0.002z"/>
    <path style="fill:#95D600;" d="M128.193,478.869c-89.799-61.294-57.329-192.981-4.983-279.648
	c37.711-62.439,84.854-96.825,132.743-96.825c104.697,0,184.136,163.91,184.136,263.439
	C440.09,535.252,208.884,533.946,128.193,478.869z"/>
    <g>
	<path style="fill:#7EC60F;" d="M256,102.396v409.591c89.352,0.787,184.09-37.706,184.09-146.153
		C440.09,266.321,360.674,102.446,256,102.396z"/>
        <path style="fill:#7EC60F;" d="M76.793,318.323l280.67-162.045c-8.301-9.361-16.882-17.562-25.676-24.557L89.462,271.628
		C84.05,287.318,79.78,303.048,76.793,318.323z"/>
        <path style="fill:#7EC60F;" d="M88.994,436.493L413.811,248.96c-4.381-10.51-9.246-20.887-14.55-30.98L76.352,404.411
		C79.225,415.912,83.46,426.628,88.994,436.493z"/>
        <path style="fill:#7EC60F;" d="M188.456,504.283l251.504-145.206c-0.396-11.779-1.802-24.207-4.135-36.994L146.146,489.329
		C158.82,495.624,172.99,500.63,188.456,504.283z"/>
</g>
    <g>
	<path style="fill:#77BC1F;" d="M331.788,131.721L256,175.477v39.381l101.463-58.58
		C349.162,146.917,340.581,138.716,331.788,131.721z"/>
        <path style="fill:#77BC1F;"
              d="M399.261,217.98L256,300.691v39.381l157.812-91.112C409.43,238.45,404.565,228.073,399.261,217.98z"
        />
        <path style="fill:#77BC1F;" d="M435.826,322.083L256,425.906v39.381l183.961-106.21
		C439.566,347.297,438.159,334.87,435.826,322.083z"/>
</g>
    <g>
</g>
    <g>
</g>
    <g>
</g>
    <g>
</g>
    <g>
</g>
    <g>
</g>
    <g>
</g>
    <g>
</g>
    <g>
</g>
    <g>
</g>
    <g>
</g>
    <g>
</g>
    <g>
</g>
    <g>
</g>
    <g>
</g>
</svg>
