<?xml version="1.0" encoding="iso-8859-1"?>
<!-- Generator: Adobe Illustrator 19.0.0, SVG Export Plug-In . SVG Version: 6.00 Build 0)  -->
<svg version="1.1" id="Layer_1" xmlns="http://www.w3.org/2000/svg" x="0px" y="0px"
     viewBox="0 0 512 512" style="enable-background:new 0 0 512 512;" xml:space="preserve">
<path style="fill:#7F5334;" d="M465.525,0c-9.425,0-17.067,7.641-17.067,17.067V66.13l-47.022,22.841V17.067
	C401.436,7.641,393.795,0,384.37,0s-17.067,7.641-17.067,17.067v32.517h-29.938c-9.425,0-17.067,7.641-17.067,17.067
	s7.641,17.067,17.067,17.067h29.938v21.834l-71.545,34.752c-5.879,2.855-9.61,8.817-9.61,15.351v30.197
	c0,9.425,7.641,17.067,17.067,17.067c9.425,0,17.067-7.641,17.067-17.067v-19.513l152.7-74.173c5.879-2.855,9.61-8.817,9.61-15.351
	V17.067C482.592,7.641,474.952,0,465.525,0z"/>
    <path style="fill:#E7A53B;" d="M338.011,266.923c-5.612-6.172-7.613-23.053-15.611-37.633c-6.224-11.354,2-25.273,14.964-25.273
	h75.996c30.183,0,47.445,34.661,29.108,58.541C416.415,296.484,366.397,298.143,338.011,266.923z"/>
    <path style="fill:#975F39;" d="M216.242,140.303l-71.545-34.751V83.718h29.938c9.425,0,17.067-7.641,17.067-17.067
	s-7.641-17.067-17.067-17.067h-29.938V17.067C144.697,7.641,137.056,0,127.63,0s-17.067,7.641-17.067,17.067v71.904L63.541,66.13
	V17.067C63.541,7.641,55.9,0,46.475,0S29.408,7.641,29.408,17.067v59.747c0,6.534,3.731,12.496,9.61,15.351l152.7,74.173v19.513
	c0,9.425,7.641,17.067,17.067,17.067c9.425,0,17.067-7.641,17.067-17.067v-30.197C225.851,149.121,222.12,143.157,216.242,140.303z"
    />
    <path style="fill:#F3B73F;" d="M69.532,262.556c-18.308-23.84-1.116-58.54,29.108-58.54h75.996
	c12.948,0,21.197,13.906,14.964,25.273c-3.892,7.095-4.716,10.333-12.108,31.726C169.415,284.39,105.586,309.511,69.532,262.556z"/>
    <path style="fill:#FFC843;" d="M392.34,323.914l-32.472-94.015c-33.943-98.342-173.565-98.51-207.735-0.011l-32.472,94.026
	c-1.525,4.415-1.172,9.262,0.967,13.403l66.287,128.375c9.341,22.767,28.786,38.98,52.019,44.351
	C244.44,511.329,250.152,512,256,512c5.848,0,11.56-0.671,17.067-1.957c23.222-5.37,42.667-21.584,52.019-44.351l66.287-128.375
	C393.512,333.175,393.865,328.329,392.34,323.914z"/>
    <g>
	<path style="fill:#F3B73F;" d="M392.34,323.914l-32.472-94.015C342.885,180.696,299.448,156.07,256,156.08V512
		c5.848,0,11.56-0.671,17.067-1.957c23.222-5.37,42.667-21.584,52.019-44.351l66.287-128.375
		C393.512,333.175,393.865,328.329,392.34,323.914z"/>
        <path style="fill:#F3B73F;" d="M278.669,342.015h-45.337c-22.935,0-35.282,26.962-20.249,44.322l25.85,29.848v93.858
		C244.44,511.329,250.152,512,256,512c5.848,0,11.56-0.671,17.067-1.957v-93.856l25.851-29.851
		C313.933,368.998,301.632,342.015,278.669,342.015z"/>
</g>
    <path style="fill:#E7A53B;" d="M278.669,342.015H256V512c5.848,0,11.56-0.671,17.067-1.957v-93.856l25.851-29.851
	C313.933,368.998,301.632,342.015,278.669,342.015z"/>
    <circle style="fill:#514335;" cx="176.993" cy="285.912" r="22.577"/>
    <circle style="fill:#473B2F;" cx="335.007" cy="285.912" r="22.577"/>
    <g>
</g>
    <g>
</g>
    <g>
</g>
    <g>
</g>
    <g>
</g>
    <g>
</g>
    <g>
</g>
    <g>
</g>
    <g>
</g>
    <g>
</g>
    <g>
</g>
    <g>
</g>
    <g>
</g>
    <g>
</g>
    <g>
</g>
</svg>
