<?xml version="1.0" encoding="iso-8859-1"?>
<!-- Generator: Adobe Illustrator 19.0.0, SVG Export Plug-In . SVG Version: 6.00 Build 0)  -->
<svg version="1.1" id="Layer_1" xmlns="http://www.w3.org/2000/svg" x="0px" y="0px"
     viewBox="0 0 511.999 511.999" style="enable-background:new 0 0 511.999 511.999;" xml:space="preserve">
<path style="fill:#E7A53B;" d="M394.817,331.678c-4.969-3.156-7.801-8.788-7.372-14.657c3.897-53.418-29.57-145.499-80.193-188.778
	c-9.272-7.928-6.585-22.941,4.865-27.155c47.654-17.543,111.391,33.207,144.934,73.184c52.225,62.238,73.26,137.085,36.309,168.091
	C466.031,365.296,425.042,350.878,394.817,331.678z"/>
    <path style="fill:#F3B73F;" d="M19.008,342.36c-43.751-36.711-3.607-120.521,36.309-168.091l0,0
	c34.433-41.034,97.863-90.513,144.935-73.182c11.447,4.213,14.14,19.226,4.865,27.155c-50.624,43.279-84.091,135.36-80.193,188.778
	c0.428,5.871-2.404,11.502-7.372,14.658C87.303,350.894,46.328,365.286,19.008,342.36z"/>
    <path style="fill:#FFC843;" d="M142.816,408.459c-79.679-54.383-51.349-170.966-4.673-248.249
	c69.056-114.335,166.795-114.719,236.081,0c37.362,61.86,82.338,188.861-4.671,248.249
	C312.503,447.399,199.943,447.452,142.816,408.459z"/>
    <g>
	<path style="fill:#F3B73F;" d="M374.226,160.21c-34.62-57.32-76.343-85.901-118.041-85.893v363.367
		c42.422-0.002,84.837-9.75,113.369-29.224C456.562,349.072,411.588,222.071,374.226,160.21z"/>
        <path style="fill:#F3B73F;" d="M305.898,262.016h-99.427c-13.648,0-21.049,16.105-12.085,26.454l45.812,52.899v95.727
		c10.617,0.557,21.356,0.557,31.975,0v-95.727l45.811-52.899C326.917,278.152,319.591,262.016,305.898,262.016z"/>
</g>
    <path style="fill:#E7A53B;" d="M305.898,262.016h-49.714v175.497c5.339,0,10.678-0.14,15.987-0.418v-95.727l45.811-52.899
	C326.917,278.152,319.591,262.016,305.898,262.016z"/>
    <circle style="fill:#64503C;" cx="198.413" cy="202.239" r="21.149"/>
    <circle style="fill:#514335;" cx="313.948" cy="202.239" r="21.149"/>
    <g>
</g>
    <g>
</g>
    <g>
</g>
    <g>
</g>
    <g>
</g>
    <g>
</g>
    <g>
</g>
    <g>
</g>
    <g>
</g>
    <g>
</g>
    <g>
</g>
    <g>
</g>
    <g>
</g>
    <g>
</g>
    <g>
</g>
</svg>
