<?xml version="1.0" encoding="iso-8859-1"?>
<!-- Generator: Adobe Illustrator 19.0.0, SVG Export Plug-In . SVG Version: 6.00 Build 0)  -->
<svg version="1.1" id="Layer_1" xmlns="http://www.w3.org/2000/svg" x="0px" y="0px"
     viewBox="0 0 512.002 512.002" style="enable-background:new 0 0 512.002 512.002;" xml:space="preserve">
<path style="fill:#DB9437;" d="M428.632,218.469c-19.911-41.319-53.99-74.182-95.958-92.535
	c-11.034-4.825-13.819-19.233-5.381-27.822c32.039-32.621,148.864-71.999,162.079-76.381c12.13-4.026,24.3,6.162,22.44,18.832
	c-6.287,42.817-24.731,152.308-55.61,182.699C447.782,231.551,433.736,229.064,428.632,218.469z"/>
    <path style="fill:#E7A53B;" d="M55.799,223.263c-30.844-30.355-49.29-139.674-55.61-182.7c-1.859-12.667,10.307-22.86,22.439-18.832
	c13.216,4.383,130.04,43.761,162.079,76.381c8.439,8.591,5.649,22.998-5.381,27.822c-41.967,18.353-76.046,51.215-95.957,92.535
	C78.275,229.041,64.231,231.562,55.799,223.263z"/>
    <path style="fill:#FFC843;" d="M245.038,487.219L36.341,314.724c-3.954-3.269-6.244-8.132-6.244-13.263
	c0-89.747,53.098-170.977,135.289-206.99c0.19-0.085,0.381-0.167,0.574-0.244c149.059-64.891,315.944,44.658,315.944,207.234
	c0,5.131-2.29,9.993-6.244,13.263L266.962,487.219C260.6,492.477,251.401,492.478,245.038,487.219z"/>
    <g>
	<path style="fill:#F3B73F;" d="M256,75.273v415.891c3.891,0,7.781-1.315,10.963-3.944l208.698-172.495
		c3.954-3.269,6.244-8.132,6.244-13.263C481.904,171.38,375.063,75.267,256,75.273z"/>
        <path style="fill:#F3B73F;" d="M261.581,350.07H250.42c-7.775,0-14.584-5.214-16.611-12.72
		c-16.195-59.972-71.143-113.171-150.754-145.955c-10.426-4.294-13.974-17.315-7.159-26.305
		c23.363-30.821,54.363-55.264,89.646-70.688c0.127-0.056,0.258-0.111,0.387-0.164c96.005-41.813,207.39-11.979,270.177,70.851
		c6.813,8.986,3.271,22.009-7.159,26.305c-79.611,32.784-134.559,85.982-150.754,145.955
		C276.165,344.857,269.356,350.07,261.581,350.07z"/>
</g>
    <path style="fill:#975F39;" d="M242.995,386.032L206.7,344.131c-9.617-11.103-1.731-28.472,13.006-28.472h72.588
	c14.694,0,22.652,17.336,13.006,28.472l-36.294,41.901C262.142,393.956,249.843,393.94,242.995,386.032z"/>
    <path style="fill:#E7A53B;" d="M436.105,165.092c-43.689-57.636-110.91-89.6-180.106-89.632v274.612h5.581
	c7.775,0,14.584-5.214,16.611-12.72c16.195-59.972,71.143-113.171,150.754-145.955C439.377,187.101,442.918,174.077,436.105,165.092
	z"/>
    <g>
	<path style="fill:#7F5334;" d="M292.293,315.658h-36.294v76.31c4.787,0,9.575-1.976,13.006-5.937l36.294-41.901
		C314.945,332.995,306.987,315.658,292.293,315.658z"/>
        <circle style="fill:#7F5334;" cx="137.031" cy="260.849" r="22.762"/>
</g>
    <circle style="fill:#66432A;" cx="374.961" cy="260.849" r="22.762"/>
    <g>
</g>
    <g>
</g>
    <g>
</g>
    <g>
</g>
    <g>
</g>
    <g>
</g>
    <g>
</g>
    <g>
</g>
    <g>
</g>
    <g>
</g>
    <g>
</g>
    <g>
</g>
    <g>
</g>
    <g>
</g>
    <g>
</g>
</svg>
