<?xml version="1.0" encoding="iso-8859-1"?>
<!-- Generator: Adobe Illustrator 19.0.0, SVG Export Plug-In . SVG Version: 6.00 Build 0)  -->
<svg version="1.1" id="Layer_1" xmlns="http://www.w3.org/2000/svg" x="0px" y="0px"
     viewBox="0 0 512.001 512.001" style="enable-background:new 0 0 512.001 512.001;" xml:space="preserve">
<path style="fill:#7EC60F;" d="M255.9,464.981c-225.789,0-334.3-178.077-191.668-285.889c7.194-5.437,17.406-4.176,23.059,2.85
	c11.922,14.812,29.649,23.308,48.639,23.308c34.428,0,62.437-28.003,62.437-62.423c0-12.01,6.725-17.982,14.784-18.886
	c27.968-3.136,57.534-3.136,85.498,0c7.975,0.895,14.784,6.725,14.784,18.886c0,34.42,28.009,62.423,62.437,62.423
	c18.989,0,36.717-8.496,48.639-23.308c5.655-7.023,15.865-8.285,23.059-2.85C591.286,287.725,480.279,464.981,255.9,464.981z"/>
    <path style="fill:#77BC1F;" d="M447.568,179.092c-7.195-5.436-17.404-4.173-23.059,2.85c-11.922,14.812-29.649,23.308-48.639,23.308
	c-34.428,0-62.437-28.003-62.437-62.423c0-12.161-6.809-17.991-14.784-18.886c-13.983-1.568-28.366-2.353-42.749-2.353v343.394
	C480.279,464.981,591.286,287.725,447.568,179.092z"/>
    <path style="fill:#95D600;" d="M135.931,238.62c-53.268,0-95.794-43.266-95.794-95.794c0-52.828,42.973-95.807,95.794-95.807
	c52.924,0,95.807,42.847,95.807,95.807C231.736,195.647,188.759,238.62,135.931,238.62z"/>
    <path style="fill:#77BC1F;" d="M1.233,309.964h509.334c1.583-11.325,1.548-22.328-0.026-33.37H1.258
	C-0.314,287.63-0.351,298.633,1.233,309.964z"/>
    <path style="fill:#669D20;"
          d="M510.541,276.594H255.9v33.37h254.667C512.151,298.64,512.115,287.635,510.541,276.594z"/>
    <path style="fill:#7EC60F;" d="M375.87,238.62c-52.828,0-95.807-42.973-95.807-95.794c0-52.856,42.784-95.807,95.807-95.807
	c52.821,0,95.794,42.979,95.794,95.807C471.664,195.332,429.162,238.62,375.87,238.62z"/>
    <g>
	<circle style="fill:#474D4F;" cx="135.939" cy="142.824" r="22.072"/>
        <circle style="fill:#474D4F;" cx="379.664" cy="142.824" r="22.072"/>
</g>
    <g>
</g>
    <g>
</g>
    <g>
</g>
    <g>
</g>
    <g>
</g>
    <g>
</g>
    <g>
</g>
    <g>
</g>
    <g>
</g>
    <g>
</g>
    <g>
</g>
    <g>
</g>
    <g>
</g>
    <g>
</g>
    <g>
</g>
</svg>
