<?xml version="1.0" encoding="iso-8859-1"?>
<!-- Generator: Adobe Illustrator 19.0.0, SVG Export Plug-In . SVG Version: 6.00 Build 0)  -->
<svg version="1.1" id="Layer_1" xmlns="http://www.w3.org/2000/svg" x="0px" y="0px"
     viewBox="0 0 512 512" style="enable-background:new 0 0 512 512;" xml:space="preserve">
<path style="fill:#E7A53B;" d="M352.169,231.155c-5.639-6.205-8.668-26.493-17.598-42.776c-6.227-11.351,1.999-25.277,14.966-25.277
	h117.385c9.427,0,17.069,7.642,17.069,17.069C483.991,249.522,398.419,282.025,352.169,231.155z"/>
    <path style="fill:#DB9437;" d="M355.582,45.303C355.582,20.322,335.258,0,310.28,0s-45.302,20.322-45.302,45.303
	c0,18.942,11.691,35.197,28.233,41.952v52.416c0,9.427,7.642,17.069,17.069,17.069c9.427,0,17.069-7.642,17.069-17.069V87.255
	C343.89,80.499,355.582,64.245,355.582,45.303z"/>
    <path style="fill:#F3B73F;" d="M28.009,180.171c0-9.427,7.642-17.069,17.069-17.069h117.385c12.946,0,21.202,13.909,14.966,25.277
	c-9.009,16.426-11.867,36.47-17.598,42.776C113.596,282.009,28.009,249.476,28.009,180.171z"/>
    <path style="fill:#E7A53B;" d="M178.9,460.313l-76.257-147.685c-2.142-4.148-2.491-8.99-0.968-13.401l37.333-108.099
	c38.415-111.44,195.927-110.412,233.989,0.015l37.327,108.083c1.524,4.412,1.174,9.256-0.967,13.402L333.1,460.315
	C304.879,529.298,207.058,529.16,178.9,460.313z"/>
    <path style="fill:#DB9437;" d="M410.325,299.226l-37.327-108.083c-19.049-55.264-68.015-83.126-116.997-83.206V512
	c31.494,0.009,62.993-17.202,77.099-51.684l76.258-147.686C411.498,308.482,411.848,303.638,410.325,299.226z"/>
    <path style="fill:#E7A53B;" d="M201.72,0c-24.978,0-45.302,20.322-45.302,45.303c0,18.942,11.691,35.197,28.233,41.952v52.416
	c0,9.427,7.642,17.069,17.069,17.069c9.427,0,17.069-7.642,17.069-17.069V87.255c16.542-6.755,28.233-23.01,28.233-41.952
	C247.022,20.322,226.7,0,201.72,0z"/>
    <path style="fill:#F3B73F;" d="M289.315,378.1c-6.593,0-28.661-11.587-61.299-0.856c-11.021,3.625-22.401-4.595-22.401-16.214
	c0-55.831,3.671-91.954-20.861-139.532l0,0c-10.666-20.686-18.441-40.449-23.109-58.737c-1.443-5.652,0.101-11.649,4.093-15.902
	c23.656-25.206,55.709-39.09,90.255-39.092c34.547-0.002,66.606,13.878,90.268,39.085c3.993,4.254,5.537,10.252,4.094,15.905
	c-4.665,18.276-12.436,38.03-23.098,58.714c-24.614,47.755-20.873,83.755-20.873,139.561
	C306.385,370.47,298.722,378.1,289.315,378.1z"/>
    <path style="fill:#E7A53B;" d="M346.262,146.853c-23.661-25.205-55.716-39.085-90.262-39.085v264.927
	c17.216,0.068,28.837,5.406,33.315,5.406c9.407,0,17.07-7.631,17.07-17.069c0-55.805-3.741-91.805,20.873-139.561
	c10.661-20.684,18.433-40.438,23.098-58.714C351.799,157.105,350.255,151.107,346.262,146.853z"/>
    <path style="fill:#FFC843;" d="M178.9,460.313c-27.18-52.638-32.438-57.058-24.964-67.95
	c49.407-71.998,155.185-71.254,204.122-0.006c7.489,10.902,2.193,15.371-24.96,67.957C304.878,529.298,207.058,529.16,178.9,460.313
	z"/>
    <g>
	<path style="fill:#F3B73F;" d="M358.059,392.359c-24.505-35.678-63.263-53.675-102.059-53.713V512
		c31.494,0.008,62.992-17.203,77.099-51.684C360.252,407.73,365.548,403.26,358.059,392.359z"/>
        <circle style="fill:#F3B73F;" cx="233.706" cy="416.752" r="13.47"/>
</g>
    <circle style="fill:#E7A53B;" cx="278.29" cy="416.752" r="13.47"/>
    <g>
	<circle style="fill:#514335;" cx="157.295" cy="268.788" r="22.58"/>
        <circle style="fill:#514335;" cx="354.712" cy="268.788" r="22.58"/>
</g>
    <g>
</g>
    <g>
</g>
    <g>
</g>
    <g>
</g>
    <g>
</g>
    <g>
</g>
    <g>
</g>
    <g>
</g>
    <g>
</g>
    <g>
</g>
    <g>
</g>
    <g>
</g>
    <g>
</g>
    <g>
</g>
    <g>
</g>
</svg>
