<?xml version="1.0" encoding="iso-8859-1"?>
<!-- Generator: Adobe Illustrator 19.0.0, SVG Export Plug-In . SVG Version: 6.00 Build 0)  -->
<svg version="1.1" id="Layer_1" xmlns="http://www.w3.org/2000/svg" x="0px" y="0px"
     viewBox="0 0 512 512" style="enable-background:new 0 0 512 512;" xml:space="preserve">
<g>
	<path style="fill:#747C81;" d="M317.059,108.319c-9.426,0-17.068-7.642-17.068-17.068c0-32.358,9.842-56.827,29.256-72.731
		c31.421-25.741,75.499-17.263,77.359-16.891c9.242,1.856,15.23,10.85,13.375,20.093c-1.856,9.24-10.84,15.224-20.093,13.375
		c-0.228-0.046-30.356-5.592-49.14,9.934c-11.03,9.119-16.623,24.668-16.623,46.218
		C334.126,100.677,326.484,108.319,317.059,108.319z"/>
    <path style="fill:#747C81;" d="M411.011,205.679c-31.912,0-56.851-20.928-60.352-31.061c-8.468-24.506-9.603-28.894-14.373-37.589
		c-6.226-11.35,1.997-25.276,14.964-25.276h119.536c9.426,0,17.068,7.642,17.068,17.068
		C487.854,171.2,453.383,205.679,411.011,205.679z"/>
</g>
    <g>
	<path style="fill:#7D868C;" d="M100.989,205.679c-42.371,0-76.842-34.479-76.842-76.858c0-9.426,7.642-17.068,17.068-17.068H160.75
		c12.944,0,21.2,13.908,14.964,25.276c-4.77,8.694-5.905,13.083-14.373,37.589C158.004,184.275,133.558,205.679,100.989,205.679z"/>
        <path style="fill:#7D868C;" d="M194.942,108.319c-9.426,0-17.068-7.642-17.068-17.068c0-21.55-5.592-37.099-16.623-46.218
		c-18.783-15.527-48.908-9.977-49.212-9.922c-9.243,1.859-18.202-4.141-20.057-13.382c-1.855-9.242,4.169-18.244,13.411-20.1
		c1.862-0.373,45.938-8.849,77.359,16.891c19.414,15.904,29.256,40.373,29.256,72.731
		C212.01,100.677,204.368,108.319,194.942,108.319z"/>
</g>
    <path style="fill:#A2A7AB;" d="M426.949,343.28c-8.921,3.084-18.626-1.65-21.71-10.559l-9.638-27.911l-61.045,153.836
	c-10.707,26.978-33.896,46.037-61.489,51.635c-10.831,2.229-22.692,2.354-34.135,0c-27.593-5.598-50.782-24.657-61.489-51.635
	L116.398,304.81l-9.637,27.911c-3.084,8.909-12.801,13.643-21.71,10.559c-8.909-3.072-13.631-12.789-10.559-21.699
	c68.93-199.645,64.299-188.221,71.297-200.965c47.594-86.749,172.839-86.731,220.422,0c6.998,12.744,2.367,1.32,71.297,200.965
	C440.58,330.491,435.858,340.208,426.949,343.28z"/>
    <g>
	<path style="fill:#7D868C;" d="M437.508,321.582c-68.93-199.645-64.299-188.221-71.297-200.965
		C342.419,77.25,299.209,55.563,256,55.562v456.433c5.828,0,11.58-0.585,17.068-1.714c27.593-5.598,50.782-24.657,61.489-51.635
		l61.045-153.836l9.638,27.911c3.084,8.909,12.789,13.643,21.71,10.559C435.858,340.208,440.58,330.491,437.508,321.582z"/>
        <path style="fill:#7D868C;" d="M282.358,337.384h-52.714c-14.571,0-22.47,17.19-12.902,28.241l22.19,25.623v119.027
		c5.53,1.138,11.242,1.718,17.068,1.718c5.826,0,11.538-0.58,17.068-1.718V391.25l22.192-25.625
		C304.801,354.606,296.971,337.384,282.358,337.384z"/>
</g>
    <path style="fill:#747C81;" d="M282.358,337.384H256v174.609c5.826,0,11.538-0.58,17.068-1.718V391.25l22.192-25.625
	C304.801,354.606,296.971,337.384,282.358,337.384z"/>
    <circle style="fill:#4A5052;" cx="209.328" cy="249.266" r="22.578"/>
    <circle style="fill:#404647;" cx="302.665" cy="249.266" r="22.578"/>
    <g>
</g>
    <g>
</g>
    <g>
</g>
    <g>
</g>
    <g>
</g>
    <g>
</g>
    <g>
</g>
    <g>
</g>
    <g>
</g>
    <g>
</g>
    <g>
</g>
    <g>
</g>
    <g>
</g>
    <g>
</g>
    <g>
</g>
</svg>
