<?xml version="1.0" encoding="iso-8859-1"?>
<!-- Generator: Adobe Illustrator 19.0.0, SVG Export Plug-In . SVG Version: 6.00 Build 0)  -->
<svg version="1.1" id="Layer_1" xmlns="http://www.w3.org/2000/svg" x="0px" y="0px"
     viewBox="0 0 511.999 511.999" style="enable-background:new 0 0 511.999 511.999;" xml:space="preserve">
<path style="fill:#C74C4E;" d="M418.451,220.924c-6.125-0.563-11.444-4.448-13.844-10.112c-13.907-32.826-33.313-62.035-56.12-84.47
	c-4.48-4.407-6.106-10.957-4.207-16.948c11.354-35.813,44.247-59.875,81.848-59.875c47.35,0,85.871,38.521,85.871,85.871
	C512,185.918,468.462,225.522,418.451,220.924z"/>
    <path style="fill:#DE5153;" d="M0,135.392c0-47.35,38.521-85.872,85.871-85.872c37.601,0,70.492,24.062,81.848,59.875
	c1.9,5.99,0.274,12.542-4.206,16.948c-22.807,22.435-42.213,51.643-56.121,84.47c-2.4,5.663-7.719,9.549-13.844,10.112
	C43.511,225.528,0,185.878,0,135.392z"/>
    <path style="fill:#FC5B5D;" d="M256,462.481c-113.018,0-202.316-48.063-202.316-159.667c0-109.432,88.234-253.222,202.275-253.259
	c0.012,0,0.031,0,0.045,0c114.031,0,202.312,143.791,202.312,253.259C458.316,414.434,369.079,462.481,256,462.481z"/>
    <path style="fill:#DE5153;" d="M256.003,49.554c-0.001,0-0.002,0-0.003,0v412.927c113.079,0,202.316-48.047,202.316-159.667
	C458.316,193.345,370.035,49.554,256.003,49.554z"/>
    <path style="fill:#FFC843;" d="M256,315.425l-51.316,35.681v49.091c0,9.22,7.475,16.696,16.696,16.696h69.239
	c9.22,0,16.696-7.475,16.696-16.696v-49.091L256,315.425z"/>
    <path style="fill:#F3B73F;" d="M256,315.425v101.468h34.62c9.22,0,16.696-7.475,16.696-16.696v-49.091L256,315.425z"/>
    <path style="fill:#DE5153;" d="M358.767,285.273c-9.227,0-16.696,7.48-16.696,16.696c0,28.035-31.789,44.692-54.929,28.26
	c-11.651-8.294-14.295-17.973-14.655-31.938l33.366-38.528c9.361-10.809,1.632-27.625-12.621-27.625h-74.464
	c-14.299,0-21.95,16.853-12.621,27.626l33.306,38.458c-0.371,14.237-2.987,23.742-14.595,32.006
	c-23.024,16.349-54.929-0.088-54.929-28.26c0-9.216-7.469-16.696-16.696-16.696c-9.216,0-16.696,7.48-16.696,16.696
	c0,38.965,31.762,68.085,68.152,68.085c19.629,0,38.236-8.437,51.311-23.217c13.058,14.762,31.657,23.217,51.311,23.217
	c36.388,0,68.152-29.117,68.152-68.085C375.463,292.753,367.983,285.273,358.767,285.273z"/>
    <path style="fill:#C74C4E;" d="M358.767,285.273c-9.227,0-16.696,7.48-16.696,16.696c0,28.035-31.789,44.692-54.929,28.26
	c-11.651-8.294-14.295-17.973-14.655-31.938l33.366-38.528c9.361-10.809,1.632-27.625-12.621-27.625H256v114.698
	c13.058,14.761,31.657,23.217,51.311,23.217c36.388,0,68.152-29.117,68.152-68.085C375.463,292.753,367.983,285.273,358.767,285.273
	z"/>
    <circle style="fill:#4A5052;" cx="176.495" cy="184.376" r="22.086"/>
    <circle style="fill:#3E4345;" cx="335.505" cy="184.376" r="22.086"/>
    <g>
</g>
    <g>
</g>
    <g>
</g>
    <g>
</g>
    <g>
</g>
    <g>
</g>
    <g>
</g>
    <g>
</g>
    <g>
</g>
    <g>
</g>
    <g>
</g>
    <g>
</g>
    <g>
</g>
    <g>
</g>
    <g>
</g>
</svg>
