<?xml version="1.0" encoding="iso-8859-1"?>
<!-- Generator: Adobe Illustrator 19.0.0, SVG Export Plug-In . SVG Version: 6.00 Build 0)  -->
<svg version="1.1" id="Layer_1" xmlns="http://www.w3.org/2000/svg" x="0px" y="0px"
     viewBox="0 0 512 512" style="enable-background:new 0 0 512 512;" xml:space="preserve">
<path style="fill:#975F39;" d="M393.069,410.13C423.844,331.036,347.748,180.909,256,180.909
	c-91.775,0-167.837,150.145-137.069,229.221c5.321,13.673-7.264,27.595-21.391,23.695l-23.276-6.417
	c-6.712-1.85-11.737-7.432-12.874-14.302l-7.545-45.563l-35.694-29.315c-5.382-4.42-7.703-11.565-5.948-18.305l11.643-44.698
	L3.163,233.933c-3.118-6.226-2.333-13.697,2.01-19.139l28.813-36.099l-2.088-46.152c-0.314-6.955,3.442-13.46,9.623-16.664
	l41.004-21.254l16.853-43.003c2.541-6.482,8.618-10.899,15.57-11.312l46.102-2.74l32.886-32.426
	c4.958-4.89,12.305-6.451,18.823-4.001L256,17.39l43.242-16.247c6.517-2.45,13.865-0.888,18.823,4.001l32.886,32.425l46.102,2.74
	c6.951,0.413,13.029,4.829,15.57,11.312l16.853,43.003l41.004,21.254c6.181,3.204,9.938,9.709,9.623,16.664l-2.088,46.152
	l28.813,36.099c4.344,5.443,5.128,12.914,2.01,19.139l-20.681,41.296l11.643,44.698c1.755,6.739-0.567,13.885-5.948,18.305
	l-35.694,29.315l-7.546,45.563c-1.137,6.869-6.162,12.451-12.874,14.302l-23.276,6.417
	C400.383,437.708,387.724,423.866,393.069,410.13z"/>
    <path style="fill:#7F5334;" d="M506.825,214.792l-28.813-36.099l2.088-46.152c0.314-6.955-3.442-13.46-9.623-16.664l-41.004-21.254
	L412.62,51.62c-2.541-6.482-8.618-10.899-15.57-11.312l-46.102-2.74L318.063,5.144c-4.958-4.889-12.306-6.451-18.823-4.001
	L255.999,17.39v163.52c91.748,0,167.844,150.126,137.069,229.221c-5.345,13.736,7.315,27.578,21.391,23.695l23.276-6.417
	c6.712-1.85,11.737-7.432,12.874-14.302l7.545-45.563l35.694-29.315c5.382-4.42,7.703-11.565,5.948-18.305l-11.643-44.698
	l20.681-41.296C511.953,227.706,511.169,220.236,506.825,214.792z"/>
    <path style="fill:#FFC843;" d="M256,512c-87.54,0-148.041-31.577-170.359-88.915C46.236,321.809,137.559,145.188,256,145.188
	c118.065,0,209.898,176.278,170.359,277.896v0.001C404.041,480.422,343.54,512,256,512z"/>
    <g>
	<path style="fill:#F3B73F;" d="M256,145.188V512c87.541,0,148.041-31.577,170.359-88.915v-0.001
		C465.898,321.466,374.064,145.188,256,145.188z"/>
        <path style="fill:#F3B73F;" d="M293.138,346.468h-74.276c-15.246,0-23.515,17.989-13.501,29.553l32.779,37.849v97.656
		c5.825,0.304,11.77,0.473,17.861,0.473c6.09,0,12.036-0.169,17.861-0.473V413.87l32.779-37.849
		C316.62,364.497,308.435,346.468,293.138,346.468z"/>
</g>
    <path style="fill:#E7A53B;" d="M293.138,346.468H256V512c6.09,0,12.036-0.169,17.861-0.473v-97.656l32.779-37.849
	C316.62,364.497,308.435,346.468,293.138,346.468z"/>
    <circle style="fill:#7F5334;" cx="176.343" cy="297.652" r="23.627"/>
    <circle style="fill:#69442B;" cx="335.659" cy="297.652" r="23.627"/>
    <g>
</g>
    <g>
</g>
    <g>
</g>
    <g>
</g>
    <g>
</g>
    <g>
</g>
    <g>
</g>
    <g>
</g>
    <g>
</g>
    <g>
</g>
    <g>
</g>
    <g>
</g>
    <g>
</g>
    <g>
</g>
    <g>
</g>
</svg>
