<?xml version="1.0" encoding="iso-8859-1"?>
<!-- Generator: Adobe Illustrator 19.0.0, SVG Export Plug-In . SVG Version: 6.00 Build 0)  -->
<svg version="1.1" id="Layer_1" xmlns="http://www.w3.org/2000/svg" x="0px" y="0px"
     viewBox="0 0 512 512" style="enable-background:new 0 0 512 512;" xml:space="preserve">
<path style="fill:#F3B73F;" d="M353.191,474.009h-51.166c-8.836,0-16-7.164-16-16v-40.499c0-8.836,7.164-16,16-16h51.166
	c8.836,0,16,7.164,16,16v40.499C369.191,466.845,362.028,474.009,353.191,474.009z"/>
    <path style="fill:#7D868C;" d="M382.831,179.756c-5.245-6.704-2.174-14.719-13.023-37.629c-5.019-10.595,2.721-22.848,14.461-22.848
	H496c8.836,0,16,7.164,16,16C512,203.822,424.972,233.622,382.831,179.756z"/>
    <path style="fill:#A2A7AB;" d="M0,135.278c0-8.836,7.164-16,16-16h111.731c11.725,0,19.485,12.239,14.461,22.848
	c-10.935,23.094-7.735,30.871-13.023,37.629C87.02,233.633,0,203.822,0,135.278z"/>
    <path style="fill:#FFC843;" d="M209.974,474.009h-51.166c-8.836,0-16-7.164-16-16v-40.499c0-8.836,7.164-16,16-16h51.166
	c8.836,0,16,7.164,16,16v40.499C225.974,466.845,218.811,474.009,209.974,474.009z"/>
    <path style="fill:#7D868C;" d="M215.838,267.443c-75.695,0-79.795-1.668-94.474,5.67c-10.612,5.311-23.155-2.419-23.155-14.31
	v-63.019c0-86.962,70.45-157.793,157.792-157.793c87.006,0,157.792,70.785,157.792,157.793v63.019
	c0,11.89-12.54,19.618-23.155,14.31c-14.603-7.3-18.524-5.67-94.483-5.67C281.929,303.395,230.084,303.873,215.838,267.443z"/>
    <path style="fill:#747C81;" d="M256,37.991v256.594c16.522-0.059,33.04-9.166,40.154-27.143c75.959,0,79.881-1.63,94.483,5.67
	c10.615,5.308,23.155-2.42,23.155-14.31v-63.019C413.792,108.778,343.006,37.991,256,37.991z"/>
    <path style="fill:#A2A7AB;" d="M366.475,433.513H145.525c-47.547,0-86.229-38.677-86.229-86.219v-25.632
	c0-48.517,39.313-86.219,86.229-86.219h74.13c11.898,0,22.183,7.716,25.594,19.203c3.149,10.611,18.349,10.623,21.502,0.001
	c3.41-11.488,13.696-19.204,25.594-19.204h74.13c46.819,0,86.229,37.602,86.229,86.219v25.632
	C452.704,394.835,414.022,433.513,366.475,433.513z"/>
    <g>
	<path style="fill:#7D868C;" d="M158.809,377.685c-23.826,0-43.211-19.385-43.211-43.212c0-23.826,19.385-43.211,43.211-43.211
		s43.211,19.385,43.211,43.211C202.019,358.301,182.635,377.685,158.809,377.685z"/>
        <path style="fill:#7D868C;" d="M366.475,235.443h-74.13c-11.898,0-22.183,7.716-25.594,19.204
		c-1.577,5.31-6.164,7.963-10.751,7.962v170.905h110.475c47.547,0,86.229-38.677,86.229-86.219v-25.632
		C452.704,273.045,413.295,235.443,366.475,235.443z"/>
</g>
    <path style="fill:#747C81;" d="M353.191,377.685c-23.826,0-43.211-19.385-43.211-43.212c0-23.826,19.385-43.211,43.211-43.211
	s43.211,19.385,43.211,43.211C396.402,358.301,377.018,377.685,353.191,377.685z"/>
    <circle style="fill:#4A5052;" cx="199.68" cy="159.541" r="21.166"/>
    <circle style="fill:#454B4D;" cx="312.32" cy="159.541" r="21.166"/>
    <g>
	<circle style="fill:#4A5052;" cx="199.68" cy="159.541" r="21.166"/>
        <circle style="fill:#4A5052;" cx="312.32" cy="159.541" r="21.166"/>
</g>
    <g>
</g>
    <g>
</g>
    <g>
</g>
    <g>
</g>
    <g>
</g>
    <g>
</g>
    <g>
</g>
    <g>
</g>
    <g>
</g>
    <g>
</g>
    <g>
</g>
    <g>
</g>
    <g>
</g>
    <g>
</g>
    <g>
</g>
</svg>
