<?xml version="1.0" encoding="iso-8859-1"?>
<!-- Generator: Adobe Illustrator 19.0.0, SVG Export Plug-In . SVG Version: 6.00 Build 0)  -->
<svg version="1.1" id="Layer_1" xmlns="http://www.w3.org/2000/svg" x="0px" y="0px"
     viewBox="0 0 512 512" style="enable-background:new 0 0 512 512;" xml:space="preserve">
<path style="fill:#64503C;" d="M392.434,163.213c-6.084-0.745-11.3-4.696-13.666-10.35c-5.357-12.803-12.45-24.712-21.082-35.399
	c-2.359-2.92-3.689-6.539-3.784-10.293C352.155,37.719,419.03-13.583,485.966,6.694c4.459,1.351,8.173,4.466,10.277,8.624
	C532.903,87.733,474.4,173.266,392.434,163.213z"/>
    <path style="fill:#7F5334;" d="M15.803,15.317c2.105-4.156,5.818-7.273,10.277-8.623c67.028-20.314,133.565,31.061,132.077,100.12
	c-0.082,3.783-1.419,7.432-3.8,10.373c-8.707,10.749-15.838,22.745-21.195,35.655c-2.362,5.688-7.605,9.664-13.721,10.401
	C38.227,173.027-21.123,88.26,15.803,15.317z"/>
    <path style="fill:#975F39;" d="M337.665,407.486c-50.512-22.682-109.895-23.963-163.241-0.023
	c-11.127,4.995-23.764-2.989-24.047-15.172c-1.673-72.264-62.79-80.561-62.79-181.492c0-67.239,35.601-126.358,88.988-156.463
	c9.64-5.437,21.827-0.385,24.813,10.256c11.163,39.807,38.341,80.164,54.628,101.959c16.282-21.806,43.46-62.176,54.601-101.85
	c2.996-10.667,15.221-15.689,24.843-10.231c53.669,30.421,89.36,90.178,88.999,157.344c-0.516,99.202-60.246,107.926-62.75,180.693
	C361.289,404.708,348.623,412.406,337.665,407.486z"/>
    <path style="fill:#7F5334;" d="M335.459,54.469c-9.623-5.458-21.848-0.437-24.843,10.231
	c-11.138,39.668-38.31,80.031-54.593,101.839v223.46c28.198,0.011,56.058,5.999,81.642,17.486
	c10.958,4.921,23.625-2.778,24.045-14.98c2.504-72.768,62.233-81.491,62.75-180.693C424.819,144.647,389.129,84.89,335.459,54.469z"
    />
    <path style="fill:#FFC843;" d="M255.982,512c-54.568,0-102.723-40.96-105.598-119.479c-0.255-6.944,3.727-13.346,10.066-16.192
	c59.184-26.563,128.731-28.025,191.196,0.024c6.332,2.843,10.311,9.24,10.063,16.177c-0.06,1.704-0.092,3.471-0.092,5.248
	C361.616,465.66,312.363,512,255.982,512z"/>
    <circle style="fill:#F3B73F;" cx="236.636" cy="426.879" r="11.715"/>
    <path style="fill:#7F5334;" d="M243.079,205.229c-31.939-37.186-73.109-102.152-79.708-156.682
	c-0.676-5.586,1.446-11.146,5.67-14.862c51.047-44.902,122.564-44.915,173.922-0.036c4.251,3.715,6.39,9.294,5.712,14.899
	c-6.595,54.491-47.961,119.734-79.708,156.682C262.166,213.147,249.887,213.155,243.079,205.229z"/>
    <path style="fill:#F3B73F;" d="M351.645,376.352c-30.846-13.852-63.421-20.494-95.622-20.483v156.13
	c56.364-0.023,105.594-46.356,105.594-114.222c0-1.778,0.031-3.544,0.092-5.248C361.957,385.592,357.977,379.195,351.645,376.352z"
    />
    <circle style="fill:#E7A53B;" cx="275.417" cy="426.879" r="11.715"/>
    <path style="fill:#64503C;" d="M342.963,33.65c-25.641-22.405-56.305-33.621-86.94-33.648v211.17c4.771,0,9.542-1.982,12.944-5.941
	c31.747-36.947,73.115-102.19,79.708-156.682C349.353,42.944,347.215,37.365,342.963,33.65z"/>
    <g>
	<circle style="fill:#514335;" cx="195.954" cy="278.568" r="22.574"/>
        <circle style="fill:#514335;" cx="316.075" cy="278.568" r="22.574"/>
</g>
    <g>
</g>
    <g>
</g>
    <g>
</g>
    <g>
</g>
    <g>
</g>
    <g>
</g>
    <g>
</g>
    <g>
</g>
    <g>
</g>
    <g>
</g>
    <g>
</g>
    <g>
</g>
    <g>
</g>
    <g>
</g>
    <g>
</g>
</svg>
