<?xml version="1.0" encoding="iso-8859-1"?>
<!-- Generator: Adobe Illustrator 19.0.0, SVG Export Plug-In . SVG Version: 6.00 Build 0)  -->
<svg version="1.1" id="Layer_1" xmlns="http://www.w3.org/2000/svg" x="0px" y="0px"
     viewBox="0 0 512 512" style="enable-background:new 0 0 512 512;" xml:space="preserve">
<path style="fill:#64503C;" d="M348.52,237.942c-7.467-16.238-19.142-30.287-33.759-40.627c-5.024-3.555-7.692-9.579-6.947-15.687
	C318.311,95.637,394.283,0.722,460.453,0.001c6.102-0.068,11.764,3.198,14.761,8.519c36.754,65.249-24.591,198.072-104.067,237.427
	C362.75,250.102,352.484,246.564,348.52,237.942z"/>
    <path style="fill:#7F5334;" d="M140.96,245.996C61.83,206.879-0.11,74.054,36.805,8.52c2.997-5.321,8.607-8.598,14.761-8.519
	c66.268,0.722,142.219,95.794,152.663,181.769c0.74,6.092-1.914,12.1-6.915,15.655c-14.603,10.382-26.273,24.418-33.751,40.593
	C159.626,246.533,149.417,250.177,140.96,245.996z"/>
    <path style="fill:#975F39;" d="M256.009,512c-53.876,0-99.613-42.752-99.613-101.409c0-21.317-5.957-42.785-17.227-62.083
	c-35.239-60.306-18.614-137.567,38.753-178.357c46.678-33.232,109.443-33.293,156.18-0.145
	c57.512,40.683,74.305,118.821,38.159,179.496l0.002-0.003c-10.887,18.286-16.642,39.716-16.642,61.973
	C355.622,469.004,309.803,512,256.009,512z"/>
    <g>
	<path style="fill:#7F5334;" d="M334.103,170.007c-23.363-16.57-50.731-24.842-78.093-24.82V512
		c53.795,0,99.613-42.995,99.613-100.528c0-22.257,5.755-43.687,16.642-61.973l-0.002,0.003
		C408.407,288.828,391.616,210.69,334.103,170.007z"/>
        <path style="fill:#7F5334;" d="M290.801,356.917h-69.584c-14.283,0-22.03,16.853-12.649,27.686l30.708,35.458v90.518
		c5.48,0.921,11.068,1.42,16.732,1.42c5.664,0,11.253-0.499,16.732-1.421v-90.516l30.708-35.458
		C312.8,373.807,305.132,356.917,290.801,356.917z"/>
</g>
    <path style="fill:#64503C;" d="M290.801,356.917h-34.792v155.082c5.664,0,11.253-0.499,16.732-1.421v-90.516l30.708-35.458
	C312.8,373.807,305.132,356.917,290.801,356.917z"/>
    <circle style="fill:#514335;" cx="176.627" cy="285.332" r="22.135"/>
    <circle style="fill:#40352A;" cx="335.395" cy="285.332" r="22.135"/>
    <g>
</g>
    <g>
</g>
    <g>
</g>
    <g>
</g>
    <g>
</g>
    <g>
</g>
    <g>
</g>
    <g>
</g>
    <g>
</g>
    <g>
</g>
    <g>
</g>
    <g>
</g>
    <g>
</g>
    <g>
</g>
    <g>
</g>
</svg>
