<?xml version="1.0" encoding="iso-8859-1"?>
<!-- Generator: Adobe Illustrator 19.0.0, SVG Export Plug-In . SVG Version: 6.00 Build 0)  -->
<svg version="1.1" id="Layer_1" xmlns="http://www.w3.org/2000/svg" x="0px" y="0px"
     viewBox="0 0 512 512" style="enable-background:new 0 0 512 512;" xml:space="preserve">
<path style="fill:#747C81;" d="M410.992,254.7c-9.608,0-19.257-1.384-28.676-4.176c-4.741-1.405-8.562-4.928-10.346-9.539
	c-13.992-36.154-33.686-67.985-55.454-89.628c-3.68-3.659-5.351-8.879-4.479-13.996c3.502-20.554,13.168-39.233,27.952-54.018
	c80.14-80.139,211.065,14.553,160.852,115.608c-3.38,6.802-11.084,10.279-18.419,8.312l-25.301-6.779l6.779,25.301
	C469.934,248.316,427.52,254.699,410.992,254.7z"/>
    <path style="fill:#7D868C;" d="M56.417,244.206c-6.801-3.38-10.278-11.083-8.312-18.419l6.779-25.301l-25.301,6.779
	c-7.337,1.963-15.039-1.512-18.419-8.312C-39.069,97.862,91.894,3.224,172.014,83.344c14.784,14.784,24.45,33.464,27.952,54.018
	c0.871,5.117-0.799,10.337-4.479,13.996c-21.768,21.643-41.462,53.474-55.454,89.628c-1.784,4.61-5.606,8.133-10.346,9.539
	C105.264,257.763,79.243,255.548,56.417,244.206z"/>
    <path style="fill:#A2A7AB;" d="M256.002,458.671c-92.516,0-166.294-39.661-166.294-131.747c0-89.33,71.543-237.648,166.294-237.648
	c94.645,0,166.294,148.277,166.294,237.648C422.296,419.336,348.155,458.671,256.002,458.671z"/>
    <g>
	<path style="fill:#7D868C;" d="M256.002,89.277L256.002,89.277v369.394l0,0c92.154,0,166.294-39.336,166.294-131.747
		C422.296,237.554,350.646,89.277,256.002,89.277z"/>
        <path style="fill:#7D868C;" d="M297.696,281.843c-23.146-38.323-60.233-38.337-83.388,0
		c-23.369,38.691-19.135,82.108,25.738,90.737v85.681c10.313,0.531,20.97,0.563,31.913,0V372.58
		C316.754,363.966,321.113,320.614,297.696,281.843z"/>
</g>
    <path style="fill:#747C81;" d="M297.696,281.843c-11.574-19.163-26.633-28.747-41.694-28.747v205.573
	c5.245,0,10.565-0.13,15.956-0.407V372.58C316.754,363.966,321.113,320.614,297.696,281.843z"/>
    <circle style="fill:#555C5E;" cx="179.253" cy="221.739" r="21.108"/>
    <circle style="fill:#474D4F;" cx="332.742" cy="221.739" r="21.108"/>
    <g>
</g>
    <g>
</g>
    <g>
</g>
    <g>
</g>
    <g>
</g>
    <g>
</g>
    <g>
</g>
    <g>
</g>
    <g>
</g>
    <g>
</g>
    <g>
</g>
    <g>
</g>
    <g>
</g>
    <g>
</g>
    <g>
</g>
</svg>
