<?xml version="1.0" encoding="iso-8859-1"?>
<!-- Generator: Adobe Illustrator 19.0.0, SVG Export Plug-In . SVG Version: 6.00 Build 0)  -->
<svg version="1.1" id="Layer_1" xmlns="http://www.w3.org/2000/svg" x="0px" y="0px"
     viewBox="0 0 512 512" style="enable-background:new 0 0 512 512;" xml:space="preserve">
<path style="fill:#975F39;" d="M286.543,498.421c-6.926-33.083-54.16-33.086-61.085,0c-2.36,11.269-14.992,17.013-25.033,11.399
	c-33.741-18.867-82.345-50.328-122.27-93.054c-5.748-6.15-4.261-7.323-4.261-44.402c0-18.181-15.759-33.199-34.828-30.991
	c-7.598,0.858-14.841-3.411-17.74-10.483c-10.677-26.048-16.09-53.006-16.09-80.125C5.236,112.168,117.391,0,256,0
	c138.598,0,250.764,112.157,250.764,250.764c0,27.121-5.413,54.079-16.09,80.125c-2.898,7.071-10.144,11.345-17.739,10.482
	c-19.196-2.205-34.828,12.923-34.828,30.991c0,36.048,1.753,37.966-4.261,44.402c-39.927,42.727-88.53,74.186-122.27,93.054
	C301.527,515.439,288.899,509.685,286.543,498.421z"/>
    <path style="fill:#7F5334;" d="M256,0v473.608c13.54,0,27.08,8.271,30.543,24.813c2.356,11.264,14.984,17.019,25.034,11.399
	c33.74-18.867,82.343-50.326,122.27-93.054c6.014-6.436,4.261-8.355,4.261-44.402c0-18.069,15.632-33.196,34.828-30.991
	c7.595,0.862,14.841-3.411,17.739-10.482c10.677-26.047,16.09-53.005,16.09-80.125C506.764,112.157,394.598,0,256,0z"/>
    <path style="fill:#F3B73F;" d="M324.358,397.264H187.642c-21.193,0-38.712-15.907-40.751-37.002l-16.124-166.887
	c-3.668-37.97,26.217-71.047,64.515-71.047h121.437c38.15,0,68.197,32.928,64.515,71.047l-16.125,166.886
	C363.072,381.356,345.553,397.264,324.358,397.264z"/>
    <g>
	<path style="fill:#E7A53B;" d="M316.718,122.327H256v274.937h68.359c21.194,0,38.712-15.908,40.75-37.003l16.125-166.886
		C384.917,155.255,354.868,122.327,316.718,122.327z"/>
        <path style="fill:#E7A53B;" d="M276.455,259.527h-40.912c-14.568,0-22.47,17.189-12.901,28.239l16.29,18.809v90.688h34.133v-90.688
		l16.289-18.811C298.901,276.742,291.063,259.527,276.455,259.527z"/>
</g>
    <path style="fill:#DB9437;" d="M276.455,259.527H256v137.738h17.066v-90.688l16.289-18.811
	C298.901,276.742,291.063,259.527,276.455,259.527z"/>
    <circle style="fill:#7F5334;" cx="214.035" cy="210.371" r="22.577"/>
    <circle style="fill:#64503C;" cx="297.967" cy="210.371" r="22.577"/>
    <g>
</g>
    <g>
</g>
    <g>
</g>
    <g>
</g>
    <g>
</g>
    <g>
</g>
    <g>
</g>
    <g>
</g>
    <g>
</g>
    <g>
</g>
    <g>
</g>
    <g>
</g>
    <g>
</g>
    <g>
</g>
    <g>
</g>
</svg>
