<?xml version="1.0" encoding="iso-8859-1"?>
<!-- Generator: Adobe Illustrator 19.0.0, SVG Export Plug-In . SVG Version: 6.00 Build 0)  -->
<svg version="1.1" id="Layer_1" xmlns="http://www.w3.org/2000/svg" x="0px" y="0px"
     viewBox="0 0 512 512" style="enable-background:new 0 0 512 512;" xml:space="preserve">
<g>
	<path style="fill:#676E72;" d="M278.258,204.393c-3.488-8.756,0.783-18.682,9.539-22.171l69.666-27.752V44.977
		c0-9.425,7.641-17.067,17.067-17.067c9.425,0,17.067,7.641,17.067,17.067v121.064c0,6.987-4.259,13.269-10.751,15.855
		l-80.418,32.034C291.674,217.419,281.746,213.151,278.258,204.393z"/>
    <path style="fill:#676E72;" d="M424.511,238.481h-86.633c-9.425,0-17.067-7.641-17.067-17.067c0-9.425,7.641-17.067,17.067-17.067
		h86.633c9.425,0,17.067,7.641,17.067,17.067C441.578,230.839,433.936,238.481,424.511,238.481z"/>
    <path style="fill:#676E72;" d="M337.879,512c-9.425,0-17.067-7.641-17.067-17.067V387.366c0-9.425,7.641-17.067,17.067-17.067
		s17.067,7.641,17.067,17.067v107.568C354.946,504.359,347.305,512,337.879,512z"/>
</g>
    <path style="fill:#747C81;" d="M256.001,104.819c-9.425,0-17.067-7.641-17.067-17.067V17.067C238.935,7.641,246.576,0,256.001,0
	c9.425,0,17.067,7.641,17.067,17.067v70.686C273.068,97.178,265.427,104.819,256.001,104.819z"/>
    <path style="fill:#676E72;" d="M256.001,0C256,0,256,0,256.001,0L256,104.819c0,0,0,0,0.001,0c9.425,0,17.067-7.641,17.067-17.067
	V17.067C273.068,7.641,265.427,0,256.001,0z"/>
    <g>
	<path style="fill:#747C81;" d="M211.575,213.932l-80.418-32.034c-6.492-2.585-10.751-8.867-10.751-15.855V44.977
		c0-9.425,7.641-17.067,17.067-17.067c9.425,0,17.067,7.641,17.067,17.067v109.492l69.667,27.752
		c8.756,3.488,13.028,13.414,9.539,22.171C230.256,213.154,220.324,217.418,211.575,213.932z"/>
        <path style="fill:#747C81;" d="M174.122,238.481h-86.63c-9.425,0-17.067-7.641-17.067-17.067c0-9.425,7.641-17.067,17.067-17.067
		h86.632c9.425,0,17.067,7.641,17.067,17.067C191.19,230.839,183.548,238.481,174.122,238.481z"/>
        <path style="fill:#747C81;" d="M174.122,512c-9.425,0-17.067-7.641-17.067-17.067V387.366c0-9.425,7.641-17.067,17.067-17.067
		c9.425,0,17.067,7.641,17.067,17.067v107.568C191.189,504.359,183.548,512,174.122,512z"/>
</g>
    <path style="fill:#A2A7AB;" d="M256.001,198.641c-35.277,0-63.977-28.7-63.977-63.978c0-35.277,28.7-63.977,63.977-63.977
	c35.278,0,63.977,28.7,63.977,63.977C319.979,169.941,291.279,198.641,256.001,198.641z"/>
    <g>
	<path style="fill:#7D868C;" d="M256.001,70.686C256,70.686,256,70.686,256.001,70.686L256,198.641c0,0,0,0,0.001,0
		c35.278,0,63.977-28.7,63.977-63.978C319.979,99.386,291.279,70.686,256.001,70.686z"/>
        <path style="fill:#7D868C;" d="M256.001,429.687c-38.229,0-69.331-31.101-69.331-69.332c0-47.076-0.3-44.818,0.825-48.303
		c5.672-17.574,19.949-69.259,11.779-84.249c-7.291-4.325-10.377-13.48-6.943-21.433c19.413-44.962,78.086-56.133,112.69-21.57
		c6.263,6.278,11.187,13.534,14.653,21.585c3.425,7.951,0.337,17.095-6.947,21.419c-8.215,15.07,6.133,66.75,11.781,84.249
		c1.125,3.486,0.825,1.232,0.825,48.303C325.332,398.585,294.23,429.687,256.001,429.687z"/>
</g>
    <path style="fill:#A2A7AB;" d="M71.097,451.058c-44.984-25.969-39.852-79.904-12.643-127.036
	c25.903-44.846,117.096-157.248,161.786-123.238c0.042,0.032,0.084,0.065,0.126,0.097c28.201,21.879,10.664,87.411-0.387,121.656
	l0,0c-8.409,26.059-26.382,74.223-52.258,104.026C141.189,457.066,105.122,470.702,71.097,451.058z"/>
    <path style="fill:#747C81;" d="M324.508,312.053c-5.672-17.574-19.95-69.259-11.781-84.249c7.284-4.324,10.372-13.468,6.947-21.419
	c-3.467-8.052-8.39-15.307-14.653-21.585c-13.841-13.825-31.532-20.325-49.022-20.281v265.168c0,0,0,0,0.001,0
	c38.229,0,69.332-31.101,69.332-69.332C325.332,313.256,325.631,315.534,324.508,312.053z"/>
    <path style="fill:#7D868C;" d="M344.291,426.572c-25.887-29.814-43.858-77.979-52.267-104.036
	c-11.051-34.246-28.588-99.776-0.387-121.656c0.042-0.033,0.084-0.066,0.126-0.098c44.494-33.855,135.393,77.548,161.783,123.236
	c27.103,46.952,32.46,101.005-12.642,127.041h0.001C406.623,470.849,370.583,456.802,344.291,426.572z"/>
    <g>
</g>
    <g>
</g>
    <g>
</g>
    <g>
</g>
    <g>
</g>
    <g>
</g>
    <g>
</g>
    <g>
</g>
    <g>
</g>
    <g>
</g>
    <g>
</g>
    <g>
</g>
    <g>
</g>
    <g>
</g>
    <g>
</g>
</svg>
