<?xml version="1.0" encoding="iso-8859-1"?>
<!-- Generator: Adobe Illustrator 19.0.0, SVG Export Plug-In . SVG Version: 6.00 Build 0)  -->
<svg version="1.1" id="Layer_1" xmlns="http://www.w3.org/2000/svg" x="0px" y="0px"
	 viewBox="0 0 512 512" style="enable-background:new 0 0 512 512;" xml:space="preserve">
<g>
	<path style="fill:#E7A53B;" d="M380.993,512c-59.343,0-107.624-48.279-107.624-107.622V276.455c0-9.425,7.641-17.067,17.067-17.067
		s17.067,7.641,17.067,17.067v127.923c0,40.522,32.968,73.489,73.49,73.489c9.425,0,17.067,7.641,17.067,17.067
		S390.419,512,380.993,512z"/>
	<path style="fill:#E7A53B;" d="M388.37,432.62c-30.071,0-54.536-24.465-54.536-54.536V230.086c0-9.425,7.641-17.067,17.067-17.067
		c9.425,0,17.067,7.641,17.067,17.067v147.999c0,11.25,9.152,20.403,20.403,20.403s20.403-9.152,20.403-20.403v-63.243
		c0-9.425,7.641-17.067,17.067-17.067h43.217c9.425,0,17.067,7.641,17.067,17.067c0,9.425-7.641,17.067-17.067,17.067h-26.151
		v46.177C442.905,408.155,418.442,432.62,388.37,432.62z"/>
</g>
	<g>
	<path style="fill:#F3B73F;" d="M131.007,512c-9.425,0-17.067-7.641-17.067-17.067s7.641-17.067,17.067-17.067
		c40.522,0,73.49-32.967,73.49-73.489V276.455c0-9.425,7.641-17.067,17.067-17.067c9.425,0,17.067,7.641,17.067,17.067v127.923
		C238.63,463.721,190.35,512,131.007,512z"/>
		<path style="fill:#F3B73F;" d="M123.63,434.307c-30.071,0-54.536-24.465-54.536-54.536v-46.177H42.943
		c-9.425,0-17.067-7.641-17.067-17.067c0-9.425,7.641-17.067,17.067-17.067H86.16c9.425,0,17.067,7.641,17.067,17.067v63.243
		c0,11.25,9.152,20.403,20.403,20.403s20.403-9.152,20.403-20.403V230.085c0-9.425,7.641-17.067,17.067-17.067
		s17.067,7.641,17.067,17.067v149.686C178.166,409.842,153.701,434.307,123.63,434.307z"/>
</g>
	<path style="fill:#FFC843;" d="M256,299.824c-37.646,0-73.647-17.92-101.375-50.459c-25.857-30.345-40.686-69.456-40.686-107.305
	C113.94,63.728,177.667,0,256,0s142.06,63.728,142.06,142.06c0,37.849-14.829,76.96-40.686,107.305
	C329.647,281.904,293.646,299.824,256,299.824z"/>
	<path style="fill:#F3B73F;" d="M256,0v299.824c37.646,0,73.647-17.92,101.375-50.459c25.857-30.345,40.686-69.456,40.686-107.305
	C398.06,63.728,334.333,0,256,0z"/>
	<g>
	<circle style="fill:#555C5E;" cx="209.328" cy="226.702" r="22.577"/>
		<circle style="fill:#555C5E;" cx="302.672" cy="226.702" r="22.577"/>
</g>
	<g>
</g>
	<g>
</g>
	<g>
</g>
	<g>
</g>
	<g>
</g>
	<g>
</g>
	<g>
</g>
	<g>
</g>
	<g>
</g>
	<g>
</g>
	<g>
</g>
	<g>
</g>
	<g>
</g>
	<g>
</g>
	<g>
</g>
</svg>
