<?xml version="1.0" encoding="iso-8859-1"?>
<!-- Generator: Adobe Illustrator 19.0.0, SVG Export Plug-In . SVG Version: 6.00 Build 0)  -->
<svg version="1.1" id="Layer_1" xmlns="http://www.w3.org/2000/svg" x="0px" y="0px"
     viewBox="0 0 512 512" style="enable-background:new 0 0 512 512;" xml:space="preserve">
<path style="fill:#277EA4;" d="M429.472,186.721c-5.981,0-11.502-3.272-14.365-8.551c-6.79-12.521-15.103-24.266-24.707-34.906
	c-5.464-6.055-5.629-15.21-0.386-21.457l68.872-82.067c5.801-6.915,16.11-7.817,23.026-2.014
	c58.89,49.413,25.921,146.884-51.996,148.988C429.767,186.719,429.619,186.721,429.472,186.721z"/>
    <path style="fill:#2C9DD0;" d="M82.509,186.721c-0.148,0-0.295-0.002-0.443-0.007C4.051,184.609-28.723,87.059,30.068,37.727
	c6.915-5.803,17.225-4.902,23.026,2.014l68.873,82.067c5.243,6.247,5.079,15.403-0.386,21.457
	c-9.602,10.639-17.914,22.383-24.708,34.906C94.01,183.448,88.49,186.721,82.509,186.721z"/>
    <path style="fill:#6CCFE2;" d="M255.99,478.098c-117.812,0-213.66-95.848-213.66-213.66c0-119.041,96.867-213.66,213.66-213.66
	c117.394,0,213.66,95.215,213.66,213.66C469.65,382.251,373.802,478.098,255.99,478.098z"/>
    <path style="fill:#58A4B3;" d="M255.99,50.779L255.99,50.779v427.32l0,0c117.812,0,213.66-95.848,213.66-213.66
	C469.65,145.994,373.383,50.779,255.99,50.779z"/>
    <path style="fill:#F3B73F;" d="M255.99,403.391c-5.287,0-10.247-2.557-13.314-6.863l-49.262-69.182
	c-6.542-9.187-2.014-22.093,8.815-25.194c22.031-6.308,37.417-26.745,37.417-49.698c0-9.026,7.318-16.344,16.344-16.344
	s16.344,7.318,16.344,16.344c0,22.954,15.386,43.391,37.417,49.698c10.842,3.105,15.347,16.017,8.815,25.193l-49.262,69.182
	C266.237,400.833,261.277,403.391,255.99,403.391z"/>
    <path style="fill:#E7A53B;" d="M309.752,302.152c-22.031-6.308-37.417-26.745-37.417-49.698c0-9.026-7.318-16.344-16.344-16.344l0,0
	v167.282l0,0c5.288,0,10.247-2.557,13.314-6.865l49.262-69.182C325.099,318.169,320.593,305.257,309.752,302.152z"/>
    <path style="fill:#FFC843;" d="M324.026,168.074c-26.768,0-51.872,12.519-68.035,34.487c-16.137-21.933-41.22-34.487-68.035-34.487
	c-46.521,0-84.369,37.852-84.369,84.378c0,46.528,37.848,84.38,84.369,84.38c7.903,0,15.734-1.096,23.271-3.255
	c18.399-5.268,33.949-16.576,44.763-31.37c15.952,21.822,40.982,34.625,68.036,34.625c46.521,0,84.369-37.852,84.369-84.38
	C408.394,205.926,370.548,168.074,324.026,168.074z"/>
    <path style="fill:#F3B73F;" d="M324.026,168.074c-26.768,0-51.872,12.519-68.035,34.487l0,0v99.647
	c15.952,21.822,40.982,34.625,68.036,34.625c46.521,0,84.369-37.852,84.369-84.38C408.394,205.926,370.548,168.074,324.026,168.074z
	"/>
    <g>
	<circle style="fill:#4A5052;" cx="187.653" cy="252.452" r="21.621"/>
        <circle style="fill:#4A5052;" cx="324.334" cy="252.452" r="21.621"/>
</g>
    <g>
</g>
    <g>
</g>
    <g>
</g>
    <g>
</g>
    <g>
</g>
    <g>
</g>
    <g>
</g>
    <g>
</g>
    <g>
</g>
    <g>
</g>
    <g>
</g>
    <g>
</g>
    <g>
</g>
    <g>
</g>
    <g>
</g>
</svg>
