<?xml version="1.0" encoding="iso-8859-1"?>
<!-- Generator: Adobe Illustrator 19.0.0, SVG Export Plug-In . SVG Version: 6.00 Build 0)  -->
<svg version="1.1" id="Layer_1" xmlns="http://www.w3.org/2000/svg" x="0px" y="0px"
     viewBox="0 0 512 512" style="enable-background:new 0 0 512 512;" xml:space="preserve">
<path style="fill:#747C81;" d="M411.978,198.73c-3.991-1.194-7.359-3.898-9.389-7.536c-11.797-21.155-25.761-39.985-41.503-55.966
	c-2.962-3.007-4.617-7.062-4.602-11.283c0.147-42.723,35.029-77.482,77.758-77.482c42.876,0,77.758,34.882,77.758,77.758
	C512,176.182,461.921,213.673,411.978,198.73z"/>
    <path style="fill:#7D868C;" d="M0,124.222c0-42.876,34.882-77.758,77.758-77.758c42.729,0,77.611,34.757,77.759,77.481
	c0.015,4.221-1.639,8.276-4.602,11.284c-15.743,15.981-29.708,34.811-41.505,55.966c-2.029,3.638-5.397,6.342-9.388,7.536
	C50.182,213.642,0,176.306,0,124.222z"/>
    <path style="fill:#E4EBF0;" d="M109.205,429.625C-39.302,333.062,95.039,52.958,256,52.958
	c160.332,0,295.955,279.679,146.795,376.667C329.2,477.479,182.89,477.536,109.205,429.625z"/>
    <path style="fill:#BBC8D1;" d="M256,52.958v412.578c54.998-0.002,109.99-11.98,146.795-35.911
	C551.955,332.637,416.332,52.958,256,52.958z"/>
    <g>
	<path style="fill:#7D868C;" d="M319.044,334.743c0-21.441-18.022-28.421-25.77-30.427c-15.145-3.92-59.28-3.952-74.548,0
		c-23.259,6.02-25.77,23.284-25.77,30.427c0,22.001,20.412,49.371,47.044,57.372v72.905c10.34,0.391,21.028,0.416,32,0v-72.905
		C298.581,384.128,319.044,356.786,319.044,334.743z"/>

        <ellipse transform="matrix(-0.7071 0.7071 -0.7071 -0.7071 466.4939 285.1647)" style="fill:#7D868C;" cx="174.187"
                 cy="239.196" rx="78.698" ry="51.869"/>
</g>
    <g>
	<path style="fill:#747C81;" d="M293.274,304.316c-7.58-1.962-22.423-2.95-37.274-2.951v163.956c5.26,0,10.594-0.096,16-0.301
		v-72.905c26.581-7.986,47.044-35.328,47.044-57.372C319.044,313.302,301.022,306.321,293.274,304.316z"/>

        <ellipse transform="matrix(-0.7071 -0.7071 0.7071 -0.7071 407.5166 647.2116)" style="fill:#747C81;" cx="337.8"
                 cy="239.206" rx="78.698" ry="51.869"/>
</g>
    <circle style="fill:#474D4F;" cx="179.051" cy="245.131" r="21.166"/>
    <circle style="fill:#3C4142;" cx="332.96" cy="245.131" r="21.166"/>
    <g>
</g>
    <g>
</g>
    <g>
</g>
    <g>
</g>
    <g>
</g>
    <g>
</g>
    <g>
</g>
    <g>
</g>
    <g>
</g>
    <g>
</g>
    <g>
</g>
    <g>
</g>
    <g>
</g>
    <g>
</g>
    <g>
</g>
</svg>
