<?xml version="1.0" encoding="iso-8859-1"?>
<!-- Generator: Adobe Illustrator 19.0.0, SVG Export Plug-In . SVG Version: 6.00 Build 0)  -->
<svg version="1.1" id="Layer_1" xmlns="http://www.w3.org/2000/svg" x="0px" y="0px"
     viewBox="0 0 512 512" style="enable-background:new 0 0 512 512;" xml:space="preserve">
<g>
	<path style="fill:#DE5153;" d="M158.137,161.833H64.038c-9.024,0-16.34-7.316-16.34-16.34c0-9.024,7.316-16.34,16.34-16.34h94.099
		c9.024,0,16.34,7.316,16.34,16.34C174.478,154.517,167.161,161.833,158.137,161.833z"/>
    <path style="fill:#DE5153;" d="M138.406,88.105H16.34C7.316,88.105,0,80.789,0,71.765s7.316-16.34,16.34-16.34h122.065
		c9.024,0,16.34,7.316,16.34,16.34S147.43,88.105,138.406,88.105z"/>
</g>
    <path style="fill:#FC5B5D;" d="M311.43,456.564h-98.182c-9.024,0-16.34-7.316-16.34-16.34c0-63.148,51.374-114.522,114.522-114.522
	c32.557,0,54.301-33.635,41.29-63.109c-13.959-31.775-45.506-27.03-66.857-27.03c-90.318,0-163.798-73.48-163.798-163.798
	c0-9.024,7.316-16.34,16.34-16.34H311.43c110.594,0,200.57,89.975,200.57,200.57S422.024,456.564,311.43,456.564z"/>
    <g>
	<path style="fill:#DE5153;" d="M311.43,55.424v180.214c16.112,1.212,32.327,6.551,41.29,26.955
		c13.011,29.474-8.733,63.109-41.29,63.109v130.863C422.024,456.564,512,366.589,512,255.994S422.024,55.424,311.43,55.424z"/>
        <path style="fill:#DE5153;" d="M327.77,455.896V322.623c-12.071,4.714-16.153,1.878-32.681,4.25v129.692
		C312.237,456.564,317.633,456.717,327.77,455.896z"/>
        <path style="fill:#DE5153;" d="M295.09,55.424v180.138c16.997,0,22.996-0.702,32.681,3.081V56.093
		c-5.391-0.437-10.839-0.669-16.34-0.669L295.09,55.424z"/>
</g>
    <g>
	<path style="fill:#C74C4E;" d="M327.77,322.623c-6.754,2.637-11.008,2.911-16.34,3.057v130.885
		c6.046-0.038,10.373-0.184,16.34-0.668V322.623z"/>
        <path style="fill:#C74C4E;" d="M327.77,56.093c-5.391-0.437-10.839-0.669-16.34-0.669v180.141c6.18,0.173,10.617,0.842,16.34,3.077
		V56.093z"/>
        <path style="fill:#C74C4E;" d="M352.72,262.593c1.385,3.137,2.379,6.397,3.003,9.742h155.608c0.859-10.605,0.924-21.283,0-32.681
		H330.155C340.029,244.179,348.164,252.223,352.72,262.593z"/>
</g>
    <circle style="fill:#555C5E;" cx="210.127" cy="145.495" r="21.616"/>
    <g>
</g>
    <g>
</g>
    <g>
</g>
    <g>
</g>
    <g>
</g>
    <g>
</g>
    <g>
</g>
    <g>
</g>
    <g>
</g>
    <g>
</g>
    <g>
</g>
    <g>
</g>
    <g>
</g>
    <g>
</g>
    <g>
</g>
</svg>
