<?xml version="1.0" encoding="iso-8859-1"?>
<!-- Generator: Adobe Illustrator 19.0.0, SVG Export Plug-In . SVG Version: 6.00 Build 0)  -->
<svg version="1.1" id="Layer_1" xmlns="http://www.w3.org/2000/svg" x="0px" y="0px"
     viewBox="0 0 512 512" style="enable-background:new 0 0 512 512;" xml:space="preserve">
<path style="fill:#7F5334;" d="M252.254,400.475H81.051c-44.689,0-81.045-36.357-81.045-81.046c0-8.836,7.164-16,16-16
	s16,7.164,16,16c0,27.044,22.002,49.046,49.045,49.046h171.203c8.836,0,16,7.164,16,16
	C268.254,393.311,261.09,400.475,252.254,400.475z"/>
    <path style="fill:#975F39;" d="M496,335.43H16c-8.836,0-16-7.164-16-16C0,125.761,243.175,37.482,367.551,186.308
	C445.697,180.052,512,241.617,512,319.43C512,328.268,504.836,335.43,496,335.43z"/>
    <g>
	<path style="fill:#7F5334;" d="M367.551,186.308C336.033,148.594,296.885,126.116,256,116.71v218.721h240c8.836,0,16-7.164,16-16
		C512,241.671,445.756,180.048,367.551,186.308z"/>
        <path style="fill:#7F5334;" d="M296.951,335.43v-16.003c0-49.107-39.952-89.059-89.059-89.059c-8.836,0-16,7.164-16,16
		c0,8.836,7.164,16,16,16c31.462,0,57.059,25.597,57.059,57.059v16.003H296.951z"/>
</g>
    <g>
	<path style="fill:#64503C;" d="M268.254,384.475c0-7.545-5.228-13.852-12.254-15.54v31.082
		C263.026,398.326,268.254,392.019,268.254,384.475z"/>
        <path style="fill:#64503C;" d="M256,244.54v44.266c5.657,8.855,8.951,19.358,8.951,30.622v16.003h32v-16.003
		C296.951,288.034,280.609,260.404,256,244.54z"/>
        <path style="fill:#64503C;" d="M424.028,228.663c-16.757-8.46-35.663-12.052-54.671-10.395
		c-9.354,0.817-17.391-6.567-17.391-15.939c0-50.983,36.637-83.846,79.271-83.846c8.836,0,16,7.164,16,16v79.898
		C447.238,226.373,434.573,233.988,424.028,228.663z"/>
</g>
    <circle style="fill:#514335;" cx="438.229" cy="259.904" r="21.166"/>
    <g>
</g>
    <g>
</g>
    <g>
</g>
    <g>
</g>
    <g>
</g>
    <g>
</g>
    <g>
</g>
    <g>
</g>
    <g>
</g>
    <g>
</g>
    <g>
</g>
    <g>
</g>
    <g>
</g>
    <g>
</g>
    <g>
</g>
</svg>
