<?xml version="1.0" encoding="iso-8859-1"?>
<!-- Generator: Adobe Illustrator 19.0.0, SVG Export Plug-In . SVG Version: 6.00 Build 0)  -->
<svg version="1.1" id="Layer_1" xmlns="http://www.w3.org/2000/svg" x="0px" y="0px"
     viewBox="0 0 512 512" style="enable-background:new 0 0 512 512;" xml:space="preserve">
<g>
	<path style="fill:#7D868C;" d="M366.301,257.534h-81.666c-9.023,0-16.338-7.315-16.338-16.338v-81.665
		c0-9.023,7.315-16.338,16.338-16.338c54.039,0,98.003,43.963,98.003,98.002C382.639,250.219,375.324,257.534,366.301,257.534z"/>
    <path style="fill:#7D868C;" d="M1.88,306.231l33.238-65.035L1.88,176.161c-7.483-14.64,9.071-29.97,23.097-21.358l118.033,72.47
		c10.363,6.364,10.382,21.471,0,27.846l-118.033,72.47C11.067,336.128-5.675,321.015,1.88,306.231z"/>
</g>
    <path style="fill:#747C81;" d="M35.115,241.189l0.003,0.008L1.88,306.231c-7.556,14.782,9.187,29.897,23.097,21.358l118.033-72.47
	c5.192-3.188,7.783-8.56,7.78-13.93H35.115V241.189z"/>
    <path style="fill:#A2A7AB;" d="M178.787,333.791c-39.12-24.103-60.663-56.988-60.663-92.595c0-9.023,7.315-16.338,16.338-16.338
	h361.201c9.023,0,16.338,7.315,16.338,16.338C512,356.168,300.813,408.975,178.787,333.791z"/>
    <path style="fill:#7D868C;" d="M118.124,241.189c0,0.002,0,0.004,0,0.008c0,35.606,21.544,68.491,60.663,92.595
	C300.813,408.976,512,356.169,512,241.197c0-0.002,0-0.004,0-0.008L118.124,241.189L118.124,241.189z"/>
    <g>
	<path style="fill:#747C81;" d="M194.446,332.943l38.472-41.665c6.121-6.631,16.457-7.041,23.086-0.92s7.04,16.457,0.92,23.086
		l-0.276,0.298l23.779-6.336c8.721-2.324,17.671,2.862,19.993,11.58c2.323,8.719-2.861,17.671-11.58,19.993l-78.185,20.833
		C194.908,364.009,183.378,344.928,194.446,332.943z"/>
        <path style="fill:#747C81;" d="M381.126,286.023c-9.023,0-16.338,7.315-16.338,16.338s7.315,16.338,16.338,16.338h91.087
		c11.737-9.983,21.028-20.977,27.665-32.696C477.69,285.974,441.05,286.023,381.126,286.023z"/>
</g>
    <circle style="fill:#5C6466;" cx="420.801" cy="255.998" r="20.411"/>
    <g>
</g>
    <g>
</g>
    <g>
</g>
    <g>
</g>
    <g>
</g>
    <g>
</g>
    <g>
</g>
    <g>
</g>
    <g>
</g>
    <g>
</g>
    <g>
</g>
    <g>
</g>
    <g>
</g>
    <g>
</g>
    <g>
</g>
</svg>
