<?xml version="1.0" encoding="iso-8859-1"?>
<!-- Generator: Adobe Illustrator 19.0.0, SVG Export Plug-In . SVG Version: 6.00 Build 0)  -->
<svg version="1.1" id="Layer_1" xmlns="http://www.w3.org/2000/svg" x="0px" y="0px"
     viewBox="0 0 512.001 512.001" style="enable-background:new 0 0 512.001 512.001;" xml:space="preserve">
<path style="fill:#747C81;" d="M392.797,218.631c9.745,0.773,18.915-1.167,27.244-5.767c5.792-3.202,12.955-2.505,18.022,1.75
	l68.224,57.26c6.768,5.68,7.65,15.771,1.971,22.54c-13.235,15.774-31.82,25.448-52.331,27.244
	C370.257,329.133,352.409,215.457,392.797,218.631z"/>
    <path style="fill:#7D868C;" d="M56.074,321.655c-20.511-1.795-39.095-11.47-52.331-27.244c-5.68-6.769-4.797-16.86,1.971-22.54
	l68.224-57.26c5.068-4.254,12.23-4.949,18.022-1.75c8.33,4.601,17.496,6.544,27.245,5.767c25.971-2.06,30.796,53.684-6.869,85.282
	l0,0C96.925,316.847,77.06,323.486,56.074,321.655z"/>
    <path style="fill:#747C81;" d="M256,471.071c-92.809,0-165.237-40.039-165.237-130.944c0-28.753,7.676-64.635,21.059-98.444
	c2.24-5.658,7.492-9.554,13.555-10.057c6.065-0.519,11.886,2.475,15.026,7.685c23.091,38.311,78.382,38.675,102.025,0.81
	c6.262-10.028,20.888-10.019,27.143,0c23.692,37.943,78.98,37.426,102.025-0.81c3.14-5.21,8.964-8.192,15.026-7.685
	c6.063,0.502,11.315,4.399,13.554,10.055c13.391,33.826,21.07,69.708,21.07,98.445C421.248,431.171,348.669,471.071,256,471.071z"/>
    <path style="fill:#676E72;" d="M400.178,241.682c-2.239-5.657-7.491-9.553-13.554-10.055c-6.062-0.507-11.886,2.476-15.026,7.685
	c-23.045,38.236-78.334,38.753-102.025,0.81c-3.129-5.01-8.35-7.517-13.572-7.517v238.466c92.669,0,165.248-39.9,165.248-130.944
	C421.248,311.389,413.569,275.508,400.178,241.682z"/>
    <path style="fill:#7D868C;" d="M297.974,322.493c-21.623-7.501-62.317-7.503-83.95,0c-49.576,17.197-20.775,72.553,25.975,83.75
	v64.413c5.233,0.272,10.566,0.415,16,0.415c5.434,0,10.767-0.143,16-0.415v-64.413C318.586,395.086,347.723,339.749,297.974,322.493
	z"/>
    <path style="fill:#747C81;" d="M297.974,322.493c-10.813-3.75-26.394-5.627-41.974-5.627v154.204c5.434,0,10.767-0.143,16-0.415
	v-64.413C318.586,395.086,347.723,339.749,297.974,322.493z"/>
    <circle style="fill:#5C6466;" cx="159.84" cy="311.915" r="21.166"/>
    <circle style="fill:#4A5052;" cx="352.16" cy="311.915" r="21.166"/>
    <path style="fill:#A2A7AB;" d="M255.999,274.092c-42.183,41.782-116.443,33.334-145.913-23.461
	c-11.812-0.738-23.252-4.043-33.598-9.757C5.082,201.54,32.557,94.125,110.144,90.465c27.506-53.074,97.853-66.025,142.447-26.423
	c1.911,1.699,4.908,1.701,6.819,0c44.715-39.71,114.999-26.541,142.446,26.423c77.411,3.649,105.182,111.009,33.639,150.417
	c-10.34,5.709-21.776,9.008-33.581,9.748C372.568,307.173,298.411,316.106,255.999,274.092z"/>
    <path style="fill:#7D868C;" d="M401.857,90.465c-27.447-52.964-97.732-66.134-142.446-26.423c-0.956,0.85-2.183,1.276-3.41,1.275
	v208.776c42.412,42.014,116.568,33.08,145.914-23.462c11.805-0.739,23.24-4.039,33.581-9.748
	C507.039,201.474,479.268,94.116,401.857,90.465z"/>
    <g>
</g>
    <g>
</g>
    <g>
</g>
    <g>
</g>
    <g>
</g>
    <g>
</g>
    <g>
</g>
    <g>
</g>
    <g>
</g>
    <g>
</g>
    <g>
</g>
    <g>
</g>
    <g>
</g>
    <g>
</g>
    <g>
</g>
</svg>
