<?xml version="1.0" encoding="iso-8859-1"?>
<!-- Generator: Adobe Illustrator 19.0.0, SVG Export Plug-In . SVG Version: 6.00 Build 0)  -->
<svg version="1.1" id="Layer_1" xmlns="http://www.w3.org/2000/svg" x="0px" y="0px"
     viewBox="0 0 512.001 512.001" style="enable-background:new 0 0 512.001 512.001;" xml:space="preserve">
<g>
	<path style="fill:#AD4446;" d="M431.792,506.262c-9.214,0-16.684-7.47-16.684-16.684v-131.66l-49.095-19.557
		c-8.56-3.41-12.736-13.114-9.325-21.674c3.409-8.56,13.115-12.738,21.674-9.325l59.604,23.744c6.347,2.527,10.51,8.668,10.51,15.5
		v142.973C448.476,498.792,441.006,506.262,431.792,506.262z"/>
    <path style="fill:#AD4446;" d="M495.316,422.904c-9.214,0-16.684-7.47-16.684-16.684v-91.375l-146.288-58.273
		c-8.56-3.409-12.736-13.114-9.325-21.674c3.408-8.56,13.113-12.737,21.674-9.325l156.799,62.46c6.346,2.528,10.51,8.669,10.51,15.5
		V406.22C512,415.434,504.531,422.904,495.316,422.904z"/>
    <path style="fill:#AD4446;" d="M291.121,185.43c-3.41-8.56,0.765-18.264,9.325-21.674l72.419-28.848V22.423
		c0-9.214,7.47-16.684,16.684-16.684c9.214,0,16.684,7.47,16.684,16.684v123.799c0,6.83-4.164,12.971-10.51,15.5l-82.93,33.034
		C304.235,198.166,294.531,193.992,291.121,185.43z"/>
</g>
    <g>
	<path style="fill:#C74C4E;" d="M199.207,194.757l-82.93-33.034c-6.347-2.528-10.51-8.669-10.51-15.499V22.423
		c0-9.214,7.47-16.684,16.684-16.684s16.684,7.47,16.684,16.684V134.91l72.419,28.848c8.56,3.41,12.736,13.114,9.325,21.674
		C217.468,193.995,207.76,198.165,199.207,194.757z"/>
        <path style="fill:#C74C4E;" d="M80.208,506.262c-9.214,0-16.684-7.47-16.684-16.684V346.605c0-6.832,4.164-12.972,10.51-15.5
		l59.604-23.744c8.56-3.408,18.265,0.765,21.674,9.325c3.41,8.56-0.765,18.264-9.325,21.674l-49.095,19.557v131.66
		C96.892,498.792,89.422,506.262,80.208,506.262z"/>
        <path style="fill:#C74C4E;" d="M16.684,422.904C7.47,422.904,0,415.434,0,406.22V303.531c0-6.83,4.164-12.971,10.51-15.5
		l156.799-62.46c8.561-3.41,18.264,0.765,21.674,9.325c3.409,8.56-0.765,18.264-9.325,21.674L33.368,314.844v91.375
		C33.368,415.434,25.898,422.904,16.684,422.904z"/>
        <path style="fill:#C74C4E;" d="M495.316,189.992H256.001H16.684C7.47,189.992,0,197.462,0,206.676
		c0,9.214,7.47,16.684,16.684,16.684h239.316h239.316c9.214,0,16.684-7.47,16.684-16.684
		C512.001,197.462,504.531,189.992,495.316,189.992z"/>
</g>
    <path style="fill:#AD4446;" d="M495.316,189.992H256.001v33.368h239.316c9.214,0,16.684-7.47,16.684-16.684
	C512.001,197.462,504.531,189.992,495.316,189.992z"/>
    <path style="fill:#DE5153;" d="M256.001,223.36c-42.534,0-77.138-34.604-77.138-77.138s34.604-77.138,77.138-77.138
	s77.138,34.604,77.138,77.138S298.534,223.36,256.001,223.36z"/>
    <path style="fill:#FC5B5D;" d="M256.001,455.732c-73.265,0-132.871-59.606-132.871-132.871s59.606-132.87,132.871-132.87
	s132.871,59.606,132.871,132.87C388.871,396.128,329.266,455.732,256.001,455.732z"/>
    <path style="fill:#C74C4E;"
          d="M256.001,69.084V223.36c42.534,0,77.138-34.604,77.138-77.138S298.534,69.084,256.001,69.084z"/>
    <path style="fill:#DE5153;" d="M256.001,189.992v265.741c73.265,0,132.871-59.606,132.871-132.871
	C388.871,249.597,329.266,189.992,256.001,189.992z"/>
    <g>
</g>
    <g>
</g>
    <g>
</g>
    <g>
</g>
    <g>
</g>
    <g>
</g>
    <g>
</g>
    <g>
</g>
    <g>
</g>
    <g>
</g>
    <g>
</g>
    <g>
</g>
    <g>
</g>
    <g>
</g>
    <g>
</g>
</svg>
