<?xml version="1.0" encoding="iso-8859-1"?>
<!-- Generator: Adobe Illustrator 19.0.0, SVG Export Plug-In . SVG Version: 6.00 Build 0)  -->
<svg version="1.1" id="Layer_1" xmlns="http://www.w3.org/2000/svg" x="0px" y="0px"
	 viewBox="0 0 512.001 512.001" style="enable-background:new 0 0 512.001 512.001;" xml:space="preserve">
<path style="fill:#514335;" d="M423.088,223.086c-17.275-39.516-42.339-75.08-70.575-100.14c-7.161-6.357-7.964-17.26-1.807-24.595
	l71.138-84.777c10.933-13.063,30.463-14.871,43.628-3.796c55.106,46.243,62.299,128.31,16.037,183.429l0.001-0.001l-28.668,34.164
	C444.384,237.448,428.327,235.068,423.088,223.086z"/>
	<path style="fill:#64503C;" d="M59.161,227.37l-28.668-34.164C-15.765,138.093-8.587,56.03,46.546,9.764
	c13.029-10.961,32.586-9.359,43.625,3.825l71.124,84.763c6.157,7.336,5.354,18.238-1.807,24.595
	c-28.235,25.06-53.299,60.624-70.575,100.14C83.627,235.179,67.542,237.361,59.161,227.37z"/>
	<path style="fill:#975F39;" d="M256.001,509.498c-126.066,0-226.925-53.227-226.925-178.845c0-39.354,10.365-83.993,29.186-125.696
	c19.435-43.064,46.32-80.572,77.747-108.464c74.061-65.676,163.136-68.148,239.978-0.005c31.467,27.929,58.368,65.467,77.8,108.564
	c18.79,41.675,29.139,86.281,29.139,125.6C482.925,456.608,381.702,509.498,256.001,509.498z"/>
	<g>
	<path style="fill:#7F5334;" d="M453.788,205.052c-19.432-43.097-46.332-80.636-77.8-108.564
		c-38.096-33.783-79.198-50.201-119.987-50.175v463.186c125.7,0,226.925-52.89,226.925-178.845
		C482.925,291.332,472.577,246.727,453.788,205.052z"/>
		<path style="fill:#7F5334;" d="M261.464,320.068h-10.927c-8.404,0-15.648-5.915-17.328-14.15
		c-13.315-65.256-52.633-124.829-110.71-167.746c-8.567-6.329-9.632-18.754-2.268-26.45c5.301-5.54,10.314-10.38,15.779-15.23
		c74.061-65.676,163.136-68.148,239.978-0.005c0.001,0.001,0.004,0.002,0.006,0.005c5.459,4.845,10.473,9.685,15.779,15.23
		c7.364,7.696,6.297,20.123-2.268,26.45c-58.078,42.917-97.395,102.491-110.71,167.746
		C277.113,314.153,269.868,320.068,261.464,320.068z"/>
</g>
	<path style="fill:#64503C;" d="M391.772,111.722c-5.306-5.545-10.32-10.385-15.779-15.23c-0.002-0.002-0.005-0.004-0.006-0.005
	C337.891,62.705,296.789,46.287,256,46.313v273.755h5.464c8.404,0,15.648-5.915,17.328-14.15
	c13.315-65.256,52.633-124.829,110.71-167.746C398.068,131.843,399.136,119.417,391.772,111.722z"/>
	<path style="fill:#FFC843;" d="M256.001,349.028l-54.358,37.796v52.001c0,9.767,7.918,17.686,17.686,17.686h73.344
	c9.767,0,17.686-7.918,17.686-17.686v-52.001L256.001,349.028z"/>
	<path style="fill:#F3B73F;"
		  d="M256.001,349.028v107.484h36.673c9.767,0,17.685-7.918,17.685-17.685v-52.001L256.001,349.028z"/>
	<path style="fill:#7F5334;" d="M364.86,317.088c-9.774,0-17.686,7.923-17.686,17.685c0,29.674-33.66,47.351-58.185,29.936
	c-19.608-13.959-15.139-31.61-15.139-65.307c0-9.762-7.923-17.686-17.685-17.686c-0.055,0-0.11,0.008-0.165,0.008
	s-0.11-0.008-0.165-0.008c-9.762,0-17.686,7.923-17.686,17.686c0,34.586,4.176,51.557-15.139,65.307
	c-24.519,17.411-58.185-0.262-58.185-29.936c0-9.762-7.911-17.685-17.686-17.685c-9.762,0-17.686,7.923-17.686,17.685
	c0,41.276,33.645,72.121,72.192,72.121c14.809,0,29.488-4.563,41.867-13.37c4.66-3.314,8.826-7.087,12.486-11.223
	c3.659,4.136,7.826,7.909,12.486,11.223c12.38,8.807,27.059,13.37,41.867,13.37c38.545,0,72.192-30.844,72.192-72.121
	C382.546,325.011,374.623,317.088,364.86,317.088z"/>
	<g>
	<path style="fill:#64503C;" d="M364.86,317.088c-9.774,0-17.686,7.923-17.686,17.685c0,29.674-33.66,47.351-58.185,29.936
		c-19.608-13.959-15.138-31.61-15.138-65.307c0-9.762-7.923-17.686-17.686-17.686c-0.055,0-0.11,0.008-0.165,0.008v100.576
		c3.659,4.136,7.826,7.909,12.486,11.223c12.38,8.807,27.059,13.37,41.867,13.37c38.545,0,72.192-30.844,72.192-72.121
		C382.546,325.011,374.623,317.088,364.86,317.088z"/>
		<path style="fill:#64503C;" d="M243.269,329.293l-25.877-29.881c-15.755-18.188-2.819-46.449,21.22-46.449h34.781
		c24.065,0,36.958,28.28,21.22,46.45l-25.877,29.88C262.014,337.052,249.973,337.035,243.269,329.293z"/>
</g>
	<g>
	<path style="fill:#514335;" d="M273.391,252.961H256v82.144c4.687,0,9.375-1.935,12.732-5.814l25.877-29.88
		C310.349,281.241,297.456,252.961,273.391,252.961z"/>
		<circle style="fill:#514335;" cx="154.607" cy="244.485" r="23.396"/>
</g>
	<circle style="fill:#4A3D30;" cx="357.401" cy="244.485" r="23.396"/>
	<g>
</g>
	<g>
</g>
	<g>
</g>
	<g>
</g>
	<g>
</g>
	<g>
</g>
	<g>
</g>
	<g>
</g>
	<g>
</g>
	<g>
</g>
	<g>
</g>
	<g>
</g>
	<g>
</g>
	<g>
</g>
	<g>
</g>
</svg>
