<?xml version="1.0" encoding="iso-8859-1"?>
<!-- Generator: Adobe Illustrator 19.0.0, SVG Export Plug-In . SVG Version: 6.00 Build 0)  -->
<svg version="1.1" id="Layer_1" xmlns="http://www.w3.org/2000/svg" x="0px" y="0px"
     viewBox="0 0 512 512" style="enable-background:new 0 0 512 512;" xml:space="preserve">
<path style="fill:#E7A53B;" d="M426.207,221.281c-7.751,0-17.268-0.243-21.599-10.468c-13.907-32.826-33.313-62.035-56.12-84.47
	c-4.48-4.407-6.106-10.957-4.207-16.948C373.72,16.539,512,37.651,512,135.392C512,182.611,473.648,221.281,426.207,221.281z"/>
    <path style="fill:#F3B73F;" d="M85.793,221.281C38.379,221.281,0,182.64,0,135.392c0-97.786,138.301-118.787,167.72-25.997
	c1.899,5.992,0.273,12.542-4.207,16.948c-22.806,22.433-42.212,51.643-56.12,84.47C103.26,220.567,94.499,221.281,85.793,221.281z"
    />
    <path style="fill:#FFC843;" d="M371.901,102.534c-30.431-29.907-64.434-47.661-99.206-51.979c-5.543-0.69-11.119-1.035-16.696-1.035
	s-11.153,0.345-16.696,1.035c-34.771,4.319-68.775,22.072-99.206,51.979c-51.306,50.482-88.815,133.257-86.406,204.9
	c0.378,10.997,1.703,22.205,4.285,33.391c4.404,19.22,12.32,37.547,24.32,53.827c6.522,8.826,14.547,17.464,24.431,25.455
	c27.425,22.216,69.153,39.469,132.575,42.04c5.409,0.223,10.963,0.334,16.696,0.334c5.721,0,11.286-0.111,16.696-0.334
	c63.533-2.56,105.305-19.79,132.73-41.973c9.895-7.992,17.92-16.629,24.42-25.455c11.837-16.023,19.788-34.213,24.275-53.894
	c2.538-11.186,3.84-22.383,4.185-33.391C460.585,235.753,422.864,152.656,371.901,102.534z"/>
    <g>
	<path style="fill:#F3B73F;" d="M371.901,102.534c-30.431-29.907-64.434-47.661-99.206-51.979
		c-5.543-0.69-11.119-1.035-16.696-1.035v412.961c5.721,0,11.286-0.111,16.696-0.334c63.533-2.56,105.305-19.79,132.73-41.973
		c9.895-7.992,17.92-16.629,24.42-25.455c11.837-16.023,19.788-34.213,24.275-53.894c2.538-11.186,3.84-22.383,4.185-33.391
		C460.585,235.753,422.864,152.656,371.901,102.534z"/>
        <path style="fill:#F3B73F;" d="M289.391,312.212h-66.783c-14.253,0-21.981,16.816-12.621,27.625l29.316,33.852v88.458
		c5.409,0.223,10.963,0.334,16.696,0.334c5.721,0,11.286-0.111,16.696-0.334v-88.458l29.316-33.852
		C311.351,329.053,303.682,312.212,289.391,312.212z"/>
        <path style="fill:#F3B73F;" d="M166.934,324.129c0,9.227-7.469,16.696-16.696,16.696h-92.26
		c-2.582-11.186-3.907-22.394-4.285-33.391h96.545C159.466,307.434,166.934,314.913,166.934,324.129z"/>
        <path style="fill:#F3B73F;" d="M157.284,396.522l-50.554,23.585c-9.884-7.992-17.909-16.629-24.431-25.455l60.872-28.394
		c8.359-3.896,18.287-0.278,22.183,8.081C169.261,382.687,165.643,392.626,157.284,396.522z"/>
        <path style="fill:#F3B73F;" d="M272.696,50.554v78.225c0,9.216-7.48,16.696-16.696,16.696s-16.696-7.48-16.696-16.696V50.554
		c5.543-0.69,11.119-1.035,16.696-1.035S267.153,49.864,272.696,50.554z"/>
</g>
    <g>
	<path style="fill:#E7A53B;" d="M289.391,312.212H256v150.269c5.721,0,11.286-0.111,16.696-0.334v-88.458l29.316-33.852
		C311.351,329.053,303.682,312.212,289.391,312.212z"/>
        <path style="fill:#E7A53B;" d="M256,49.519v95.955c9.216,0,16.696-7.48,16.696-16.696V50.554
		C267.153,49.864,261.576,49.519,256,49.519z"/>
        <path style="fill:#E7A53B;" d="M458.307,307.434c-0.345,11.008-1.647,22.205-4.185,33.391h-92.36
		c-9.227,0-16.696-7.469-16.696-16.696c0-9.216,7.469-16.696,16.696-16.696H458.307z"/>
        <path style="fill:#E7A53B;" d="M429.846,394.719c-6.5,8.826-14.525,17.464-24.42,25.455l-50.71-23.652
		c-8.359-3.896-11.976-13.835-8.07-22.183c3.896-8.359,13.824-11.976,22.183-8.081L429.846,394.719z"/>
</g>
    <g>
	<circle style="fill:#64503C;" cx="175.149" cy="227.339" r="22.086"/>
        <circle style="fill:#64503C;" cx="336.851" cy="227.339" r="22.086"/>
</g>
    <g>
</g>
    <g>
</g>
    <g>
</g>
    <g>
</g>
    <g>
</g>
    <g>
</g>
    <g>
</g>
    <g>
</g>
    <g>
</g>
    <g>
</g>
    <g>
</g>
    <g>
</g>
    <g>
</g>
    <g>
</g>
    <g>
</g>
</svg>
