<?xml version="1.0" encoding="iso-8859-1"?>
<!-- Generator: Adobe Illustrator 19.0.0, SVG Export Plug-In . SVG Version: 6.00 Build 0)  -->
<svg version="1.1" id="Layer_1" xmlns="http://www.w3.org/2000/svg" x="0px" y="0px"
     viewBox="0 0 512 512" style="enable-background:new 0 0 512 512;" xml:space="preserve">
<g>
	<path style="fill:#F3B73F;" d="M373.478,238.336c-4.5-23.108-14.444-44.592-28.755-62.132c-6.682-8.188-4.381-20.428,4.805-25.637
		l45.523-25.815c26.517-15.053,60.352-5.72,75.415,20.812c15.034,26.564,5.688,60.391-20.824,75.426l-50.987,28.928
		C388.559,255.647,375.716,249.826,373.478,238.336z"/>
    <path style="fill:#F3B73F;" d="M391.772,412.852l-44.637-26.684c-9.064-5.419-11.074-17.699-4.227-25.726
		c14.68-17.21,25.054-38.481,29.998-61.514c2.451-11.417,15.42-17.063,25.447-11.066l50.191,30.014
		c26.176,15.65,34.743,49.688,19.095,75.876c-0.001,0.002-0.002,0.005-0.003,0.006C451.99,419.914,417.962,428.499,391.772,412.852z
		"/>
</g>
    <path style="fill:#FFC843;" d="M295.807,139.879c-24.963-9.83-53.247-10.383-79.611,0c-11.197,4.411-23.322-3.867-23.322-15.881
	V63.126C192.874,28.319,221.192,0,256.002,0s63.126,28.319,63.126,63.126v60.872C319.128,136.014,306.999,144.29,295.807,139.879z"
    />
    <path style="fill:#F3B73F;" d="M256.002,0C256,0,256,0,255.999,0v132.31c13.668,0.003,27.163,2.591,39.808,7.57
	c11.192,4.41,23.322-3.865,23.322-15.881V63.126C319.128,28.319,290.81,0,256.002,0z"/>
    <g>
	<path style="fill:#FFC843;" d="M113.348,249.919l-50.989-28.93c-26.509-15.033-35.856-48.86-20.832-75.405
		c15.073-26.55,48.907-35.884,75.433-20.827l45.515,25.81c9.194,5.214,11.481,17.456,4.805,25.637
		c-14.313,17.54-24.256,39.024-28.755,62.132C136.282,249.843,123.421,255.634,113.348,249.919z"/>
        <path style="fill:#FFC843;" d="M44.368,393.757c-15.651-26.194-7.084-60.232,19.094-75.883l50.188-30.012
		c10.022-5.993,22.995-0.357,25.447,11.066c4.944,23.034,15.317,44.305,29.999,61.514c6.854,8.035,4.829,20.312-4.227,25.726
		l-44.633,26.682C94.048,428.492,60.019,419.926,44.368,393.757z"/>
        <path style="fill:#FFC843;" d="M240.478,502.047l-37.182-81.358c-6.118-13.388,6.527-27.765,20.589-23.393
		c20.537,6.383,42.994,6.601,64.231,0c14.059-4.366,26.709,9.998,20.589,23.393l-37.182,81.358
		C265.467,515.303,246.548,515.332,240.478,502.047z"/>
</g>
    <path style="fill:#F3B73F;" d="M288.117,397.297c-10.534,3.274-21.367,4.866-32.117,4.865V512
	c6.248-0.001,12.496-3.322,15.524-9.953l37.182-81.358C314.827,407.295,302.177,392.931,288.117,397.297z"/>
    <path style="fill:#95D600;" d="M256.002,436.301c-85.465,0-154.379-75.869-154.379-169.066
	c0-117.206,106.333-198.64,206.692-159.114c59.376,23.413,102.065,85.652,102.065,159.114
	C410.38,360.77,341.16,436.301,256.002,436.301z"/>
    <g>
	<path style="fill:#7EC60F;" d="M255.999,98.034v338.267c0.001,0,0.001,0,0.002,0c85.158,0,154.379-75.531,154.379-169.066
		C410.38,171.665,339.049,98.055,255.999,98.034z"/>
        <path style="fill:#7EC60F;" d="M384.433,361.092c5.912-9.694,10.878-20.042,14.842-30.846l-65.322-37.713v-50.597l65.321-37.713
		c-3.964-10.8-8.947-21.138-14.859-30.836l-67.53,38.989l-43.818-25.298V99.192c-11.031-1.329-22.48-1.404-34.135,0v87.883
		l-43.818,25.298l-67.529-38.989c-5.913,9.699-10.895,20.036-14.86,30.836l65.321,37.713v50.597l-65.322,37.714
		c3.965,10.805,8.931,21.152,14.842,30.845l67.547-38.999l43.818,25.298v87.87c11.478,1.384,22.642,1.385,34.135,0v-87.87
		l43.818-25.298L384.433,361.092z M299.819,292.533l-43.818,25.298l-43.818-25.298v-50.598l43.818-25.298l43.818,25.298V292.533z"/>
</g>
    <path style="fill:#77BC1F;" d="M333.954,292.533v-50.598l65.321-37.713c-3.964-10.8-8.947-21.138-14.859-30.836l-67.53,38.989
	l-43.818-25.298V99.192c-5.591-0.674-11.291-1.022-17.07-1.022v118.468l0.002-0.001l43.818,25.298v50.597l-43.818,25.298
	l-0.002-0.001v118.47c5.661,0,11.324-0.346,17.07-1.038v-87.87l43.818-25.298l67.547,38.998
	c5.912-9.694,10.878-20.042,14.842-30.846L333.954,292.533z"/>
    <g>
</g>
    <g>
</g>
    <g>
</g>
    <g>
</g>
    <g>
</g>
    <g>
</g>
    <g>
</g>
    <g>
</g>
    <g>
</g>
    <g>
</g>
    <g>
</g>
    <g>
</g>
    <g>
</g>
    <g>
</g>
    <g>
</g>
</svg>
