<?xml version="1.0" encoding="iso-8859-1"?>
<!-- Generator: Adobe Illustrator 19.0.0, SVG Export Plug-In . SVG Version: 6.00 Build 0)  -->
<svg version="1.1" id="Layer_1" xmlns="http://www.w3.org/2000/svg" x="0px" y="0px"
     viewBox="0 0 512 512" style="enable-background:new 0 0 512 512;" xml:space="preserve">
<path style="fill:#7F5334;" d="M256,500.7c-9.009,0-16.313-7.304-16.313-16.313V442.11c0-9.009,7.304-16.313,16.313-16.313
	c9.009,0,16.313,7.304,16.313,16.313v42.276C272.314,493.396,265.009,500.7,256,500.7z"/>
    <path style="fill:#64503C;" d="M256,425.797L256,425.797V500.7l0,0c9.009,0,16.313-7.304,16.313-16.313V442.11
	C272.314,433.101,265.009,425.797,256,425.797z"/>
    <path style="fill:#FFC843;" d="M256,458.418c-41.262,0-79.648-20.468-102.684-54.752c-4.467-6.648-3.446-15.555,2.407-21.021
	c40.553-37.868,62.596-168.477,30.868-190.69c-9.367-6.556-9.243-20.488,0.225-26.882c41.786-28.223,96.579-28.226,138.37,0
	c9.475,6.399,9.585,20.331,0.225,26.882c-31.137,21.798-10.871,151.714,30.868,190.69c5.853,5.466,6.873,14.373,2.407,21.021
	C335.648,437.95,297.262,458.418,256,458.418z"/>
    <g>
	<path style="fill:#F3B73F;" d="M356.277,382.645c-41.739-38.976-62.005-168.892-30.868-190.69
		c9.361-6.551,9.251-20.483-0.225-26.882c-20.895-14.113-45.04-21.168-69.185-21.168v314.514l0,0
		c41.262,0,79.648-20.468,102.684-54.752C363.15,397.018,362.131,388.111,356.277,382.645z"/>
        <path style="fill:#F3B73F;" d="M182.619,187.996c-10.72-15.197-16.387-33.079-16.387-51.71c0-49.507,40.27-89.782,89.769-89.782
		s89.769,40.276,89.769,89.782c0,18.631-5.666,36.512-16.387,51.71c-5.121,7.258-15.111,9.087-22.468,4.111
		c-30.724-20.772-71.109-20.77-101.828,0C197.726,197.084,187.739,195.256,182.619,187.996z"/>
</g>
    <path style="fill:#E7A53B;" d="M256,46.504L256,46.504v130.025c17.776,0,35.552,5.192,50.915,15.578
	c7.357,4.977,17.345,3.148,22.468-4.111c10.72-15.197,16.387-33.079,16.387-51.71C345.769,86.78,305.498,46.504,256,46.504z"/>
    <g>
	<path style="fill:#7F5334;" d="M310.361,251.299H201.599c-0.41,10.376-1.631,21.393-3.613,32.627h115.928
		C311.987,272.892,310.756,261.863,310.361,251.299z"/>
        <path style="fill:#7F5334;" d="M334.819,351.049c-4.753-9.848-9.023-20.934-12.622-32.627H189.65
		c-3.661,11.858-7.976,22.914-12.66,32.627H334.819z"/>
        <path style="fill:#7F5334;" d="M245.322,75.149l-40.651-35.204c-6.81-5.898-7.55-16.2-1.652-23.012s16.2-7.55,23.012-1.652
		l29.971,25.956l29.971-25.956c6.811-5.898,17.114-5.158,23.012,1.652c5.898,6.81,5.158,17.113-1.652,23.012l-40.651,35.204
		C260.552,80.458,251.452,80.459,245.322,75.149z"/>
</g>
    <path style="fill:#6CCFE2;" d="M56.622,414.08c-53.792-31.057-73.433-85.426-40.606-142.296
	c32.13-55.64,133.966-144.916,189.225-106.6c56.402,39.483,22.132,195.193-27.25,241.307
	C143.724,438.498,97.514,437.689,56.622,414.08z"/>
    <g>
	<path style="fill:#64503C;"
          d="M310.361,251.299h-54.361v32.627h57.914C311.987,272.892,310.756,261.863,310.361,251.299z"/>
        <path style="fill:#64503C;"
              d="M322.196,318.422h-66.197v32.627h78.819C330.067,341.201,325.796,330.114,322.196,318.422z"/>
        <path style="fill:#64503C;" d="M308.984,16.934c-5.897-6.81-16.2-7.55-23.012-1.652l-29.971,25.956L256,41.236v37.895
		c3.808,0,7.616-1.327,10.681-3.982l40.651-35.204C314.142,34.046,314.882,23.744,308.984,16.934z"/>
</g>
    <path style="fill:#58A4B3;" d="M334.007,406.489c-50.265-46.938-84.922-207.913-23.695-243.562
	c56.242-32.474,154.602,55.056,185.669,108.854c32.822,56.861,13.2,111.233-40.604,142.298l0,0
	C414.264,437.817,368.121,438.355,334.007,406.489z"/>
    <g>
</g>
    <g>
</g>
    <g>
</g>
    <g>
</g>
    <g>
</g>
    <g>
</g>
    <g>
</g>
    <g>
</g>
    <g>
</g>
    <g>
</g>
    <g>
</g>
    <g>
</g>
    <g>
</g>
    <g>
</g>
    <g>
</g>
</svg>
