<?xml version="1.0" encoding="iso-8859-1"?>
<!-- Generator: Adobe Illustrator 19.0.0, SVG Export Plug-In . SVG Version: 6.00 Build 0)  -->
<svg version="1.1" id="Layer_1" xmlns="http://www.w3.org/2000/svg" x="0px" y="0px"
     viewBox="0 0 512 512" style="enable-background:new 0 0 512 512;" xml:space="preserve">
<path style="fill:#58A4B3;" d="M111.95,259.466c11.455-57.633-40.084-108.067-97.578-95.172
	c-6.168,1.385-10.985,6.201-12.368,12.369c-6.139,27.375,2.017,55.54,21.82,75.344l0,0c2.71,2.71,5.584,5.188,8.584,7.455
	c-3.001,2.268-5.872,4.752-8.584,7.463l0,0C4.022,286.728-4.135,314.895,2.004,342.27c1.383,6.168,6.2,10.986,12.368,12.368
	C71.906,367.541,123.398,317.057,111.95,259.466z"/>
    <path style="fill:#277EA4;" d="M32.404,259.467c-2.999,2.267-5.869,4.749-8.578,7.458l0,0C4.022,286.728-4.135,314.895,2.004,342.27
	c1.383,6.168,6.2,10.986,12.368,12.368c57.534,12.903,109.025-37.582,97.578-95.171H32.404L32.404,259.467z"/>
    <path style="fill:#6CCFE2;" d="M144.038,382.68c-41.778-33.076-64.785-77.396-64.785-124.795c0-9.024,7.316-16.34,16.34-16.34
	h400.068c9.024,0,16.34,7.316,16.34,16.34C512,412.114,280.812,490.97,144.038,382.68z"/>
    <path style="fill:#2C9DD0;" d="M79.277,259.467c0.507,46.802,23.449,90.506,64.761,123.214
	c136.305,107.918,366.364,29.97,367.943-123.214H79.277z"/>
    <path style="fill:#58A4B3;" d="M350.27,241.545c-13.142,78.799-71.845,140.434-142.159,176.253
	c14.554,5.184,29.811,9.06,45.544,11.538c67.012-42.895,118.407-108.404,129.688-187.791L350.27,241.545L350.27,241.545z"/>
    <g>
	<path style="fill:#6CCFE2;" d="M295.626,214.405c-9.024,0-16.34-7.316-16.34-16.34v-79.49c0-21.717,17.667-39.385,39.385-39.385
		c21.717,0,39.385,17.669,39.385,39.385v18.204c0,9.024-7.316,16.34-16.34,16.34c-9.024,0-16.34-7.316-16.34-16.34v-18.204
		c0-8.862-13.412-8.865-13.412,0v79.49C311.965,207.089,304.651,214.405,295.626,214.405z"/>
        <path style="fill:#6CCFE2;" d="M252.799,214.405c-9.024,0-16.34-7.316-16.34-16.34v-57.604c0-8.862-13.412-8.865-13.412,0v18.204
		c0,9.024-7.316,16.34-16.34,16.34s-16.34-7.316-16.34-16.34v-18.204c0-21.717,17.667-39.385,39.385-39.385
		s39.385,17.669,39.385,39.385v57.604C269.138,207.089,261.822,214.405,252.799,214.405z"/>
</g>
    <path style="fill:#277EA4;" d="M346.43,259.467c-18.428,70.231-73.428,125.275-138.319,158.331
	c14.554,5.184,29.811,9.06,45.544,11.538c61.897-39.62,110.443-98.545,126.387-169.869H346.43L346.43,259.467z"/>
    <circle style="fill:#4C6370;" cx="439.056" cy="289.287" r="21.615"/>
    <g>
</g>
    <g>
</g>
    <g>
</g>
    <g>
</g>
    <g>
</g>
    <g>
</g>
    <g>
</g>
    <g>
</g>
    <g>
</g>
    <g>
</g>
    <g>
</g>
    <g>
</g>
    <g>
</g>
    <g>
</g>
    <g>
</g>
</svg>
